999
dxfrw 0.6.3
  0
SECTION
  2
HEADER
  9
$ACADVER
  1
AC1021
  9
$DWGCODEPAGE
  3
ANSI_1252
  9
$INSBASE
 10
0
 20
0
 30
0
  9
$EXTMIN
 10
-73.125
 20
-71.25
 30
0
  9
$EXTMAX
 10
51.25
 20
63.125
 30
0
  9
$LIMMIN
 10
0
 20
0
  9
$LIMMAX
 10
420
 20
297
  9
$ORTHOMODE
 70
    0
  9
$REGENMODE
 70
    1
  9
$FILLMODE
 70
    1
  9
$QTEXTMODE
 70
    0
  9
$MIRRTEXT
 70
    0
  9
$LTSCALE
 40
1
  9
$ATTMODE
 70
    0
  9
$TEXTSIZE
 40
2.5
  9
$TRACEWID
 40
15.68
  9
$TEXTSTYLE
  7
STANDARD
  9
$CLAYER
  8
check
  9
$CELTYPE
  6
BYLAYER
  9
$CECOLOR
 62
  256
  9
$CELTSCALE
 40
1
  9
$DISPSILH
 70
    0
  9
$DIMSCALE
 40
1
  9
$DIMASZ
 40
2.5
  9
$DIMEXO
 40
0.625
  9
$DIMDLI
 40
3.75
  9
$DIMRND
 40
0
  9
$DIMDLE
 40
0
  9
$DIMEXE
 40
1.25
  9
$DIMTP
 40
0
  9
$DIMTM
 40
0
  9
$DIMTXT
 40
2.5
  9
$DIMCEN
 40
2.5
  9
$DIMTSZ
 40
0
  9
$DIMTOL
 70
    0
  9
$DIMLIM
 70
    0
  9
$DIMTIH
 70
    0
  9
$DIMTOH
 70
    0
  9
$DIMSE1
 70
    0
  9
$DIMSE2
 70
    0
  9
$DIMTAD
 70
    1
  9
$DIMZIN
 70
    8
  9
$DIMBLK
  1

  9
$DIMASO
 70
    1
  9
$DIMSHO
 70
    1
  9
$DIMPOST
  1

  9
$DIMAPOST
  1

  9
$DIMALT
 70
    0
  9
$DIMALTD
 70
    3
  9
$DIMALTF
 40
0.03937
  9
$DIMLFAC
 40
1
  9
$DIMTOFL
 70
    1
  9
$DIMTVP
 40
0
  9
$DIMTIX
 70
    0
  9
$DIMSOXD
 70
    0
  9
$DIMSAH
 70
    0
  9
$DIMBLK1
  1

  9
$DIMBLK2
  1

  9
$DIMSTYLE
  2
Standard
  9
$DIMCLRD
 70
    0
  9
$DIMCLRE
 70
    0
  9
$DIMCLRT
 70
    0
  9
$DIMTFAC
 40
1
  9
$DIMGAP
 40
0.625
  9
$DIMJUST
 70
    0
  9
$DIMSD1
 70
    0
  9
$DIMSD2
 70
    0
  9
$DIMTOLJ
 70
    0
  9
$DIMTZIN
 70
    8
  9
$DIMALTZ
 70
    0
  9
$DIMALTTZ
 70
    0
  9
$DIMUPT
 70
    0
  9
$DIMDEC
 70
    2
  9
$DIMTDEC
 70
    2
  9
$DIMALTU
 70
    2
  9
$DIMALTTD
 70
    3
  9
$DIMTXSTY
  7
STANDARD
  9
$DIMAUNIT
 70
    0
  9
$DIMADEC
 70
    0
  9
$DIMALTRND
 40
0
  9
$DIMAZIN
 70
    0
  9
$DIMDSEP
 70
   44
  9
$DIMATFIT
 70
    3
  9
$DIMFRAC
 70
    0
  9
$DIMLDRBLK
  1
STANDARD
  9
$DIMLUNIT
 70
    2
  9
$DIMLWD
 70
   -2
  9
$DIMLWE
 70
   -2
  9
$DIMTMOVE
 70
    0
  9
$DIMFXL
 40
1
  9
$DIMFXLON
 70
    0
  9
$DIMJOGANG
 40
0.7854
  9
$DIMTFILL
 70
    0
  9
$DIMTFILLCLR
 70
    0
  9
$DIMARCSYM
 70
    0
  9
$DIMLTYPE
  6

  9
$DIMLTEX1
  6

  9
$DIMLTEX2
  6

  9
$LUNITS
 70
    2
  9
$LUPREC
 70
    4
  9
$SKETCHINC
 40
1
  9
$FILLETRAD
 40
0
  9
$AUNITS
 70
    0
  9
$AUPREC
 70
    2
  9
$MENU
  1
.
  9
$ELEVATION
 40
0
  9
$PELEVATION
 40
0
  9
$THICKNESS
 40
0
  9
$LIMCHECK
 70
    0
  9
$CHAMFERA
 40
0
  9
$CHAMFERB
 40
0
  9
$CHAMFERC
 40
0
  9
$CHAMFERD
 40
0
  9
$SKPOLY
 70
    0
  9
$USRTIMER
 70
    1
  9
$ANGBASE
 50
0
  9
$ANGDIR
 70
    0
  9
$PDMODE
 70
   34
  9
$PDSIZE
 40
0
  9
$PLINEWID
 40
0
  9
$SPLFRAME
 70
    0
  9
$SPLINETYPE
 70
    2
  9
$SPLINESEGS
 70
    8
  9
$HANDSEED
  5
20000
  9
$SURFTAB1
 70
    6
  9
$SURFTAB2
 70
    6
  9
$SURFTYPE
 70
    6
  9
$SURFU
 70
    6
  9
$SURFV
 70
    6
  9
$UCSBASE
  2

  9
$UCSNAME
  2

  9
$UCSORG
 10
0
 20
0
 30
0
  9
$UCSXDIR
 10
1
 20
0
 30
0
  9
$UCSYDIR
 10
0
 20
1
 30
0
  9
$UCSORTHOREF
  2

  9
$UCSORTHOVIEW
 70
    0
  9
$UCSORGTOP
 10
0
 20
0
 30
0
  9
$UCSORGBOTTOM
 10
0
 20
0
 30
0
  9
$UCSORGLEFT
 10
0
 20
0
 30
0
  9
$UCSORGRIGHT
 10
0
 20
0
 30
0
  9
$UCSORGFRONT
 10
0
 20
0
 30
0
  9
$UCSORGBACK
 10
0
 20
0
 30
0
  9
$PUCSBASE
  2

  9
$PUCSNAME
  2

  9
$PUCSORG
 10
0
 20
0
 30
0
  9
$PUCSXDIR
 10
1
 20
0
 30
0
  9
$PUCSYDIR
 10
0
 20
1
 30
0
  9
$PUCSORTHOREF
  2

  9
$PUCSORTHOVIEW
 70
    0
  9
$PUCSORGTOP
 10
0
 20
0
 30
0
  9
$PUCSORGBOTTOM
 10
0
 20
0
 30
0
  9
$PUCSORGLEFT
 10
0
 20
0
 30
0
  9
$PUCSORGRIGHT
 10
0
 20
0
 30
0
  9
$PUCSORGFRONT
 10
0
 20
0
 30
0
  9
$PUCSORGBACK
 10
0
 20
0
 30
0
  9
$USERI1
 70
    0
  9
$USERI2
 70
    0
  9
$USERI3
 70
    0
  9
$USERI4
 70
    0
  9
$USERI5
 70
    0
  9
$USERR1
 40
0
  9
$USERR2
 40
0
  9
$USERR3
 40
0
  9
$USERR4
 40
0
  9
$USERR5
 40
0
  9
$WORLDVIEW
 70
    1
  9
$SHADEDGE
 70
    3
  9
$SHADEDIF
 70
   70
  9
$TILEMODE
 70
    1
  9
$MAXACTVP
 70
   64
  9
$PINSBASE
 10
0
 20
0
 30
0
  9
$PLIMCHECK
 70
    0
  9
$PEXTMIN
 10
0
 20
0
 30
0
  9
$PEXTMAX
 10
0
 20
0
 30
0
  9
$SNAPSTYLE
 70
    0
  9
$PLIMMIN
 10
0
 20
0
  9
$PLIMMAX
 10
210
 20
297
  9
$UNITMODE
 70
    0
  9
$VISRETAIN
 70
    1
  9
$PLINEGEN
 70
    0
  9
$PSLTSCALE
 70
    1
  9
$TREEDEPTH
 70
 3020
  9
$CMLSTYLE
  2
Standard
  9
$CMLJUST
 70
    0
  9
$CMLSCALE
 40
20
  9
$PROXYGRAPHICS
 70
    1
  9
$MEASUREMENT
 70
    1
  9
$CELWEIGHT
370
   -1
  9
$ENDCAPS
280
    0
  9
$JOINSTYLE
280
    0
  9
$LWDISPLAY
290
    0
  9
$INSUNITS
 70
    4
  9
$HYPERLINKBASE
  1

  9
$STYLESHEET
  1

  9
$XEDIT
290
    1
  9
$CEPSNTYPE
380
    0
  9
$PSTYLEMODE
290
    1
  9
$EXTNAMES
290
    1
  9
$PSVPSCALE
 40
1
  9
$OLESTARTUP
290
    0
  9
$SORTENTS
280
  127
  9
$INDEXCTL
280
    0
  9
$HIDETEXT
280
    1
  9
$XCLIPFRAME
290
    0
  9
$HALOGAP
280
    0
  9
$OBSCOLOR
 70
  257
  9
$OBSLTYPE
280
    0
  9
$INTERSECTIONDISPLAY
280
    0
  9
$INTERSECTIONCOLOR
 70
  257
  9
$DIMASSOC
280
    1
  9
$PROJECTNAME
  1

  9
$CAMERADISPLAY
290
    0
  9
$LENSLENGTH
 40
50
  9
$CAMERAHEIGHT
 40
0
  9
$STEPSPERSEC
 40
2
  9
$STEPSIZE
 40
50
  9
$3DDWFPREC
 40
2
  9
$PSOLWIDTH
 40
5
  9
$PSOLHEIGHT
 40
80
  9
$LOFTANG1
 40
1.570796326794897
  9
$LOFTANG2
 40
1.570796326794897
  9
$LOFTMAG1
 40
0
  9
$LOFTMAG2
 40
0
  9
$LOFTPARAM
 70
    7
  9
$LOFTNORMALS
280
    1
  9
$LATITUDE
 40
1
  9
$LONGITUDE
 40
1
  9
$NORTHDIRECTION
 40
0
  9
$TIMEZONE
 70
-8000
  9
$LIGHTGLYPHDISPLAY
280
    1
  9
$TILEMODELIGHTSYNCH
280
    1
  9
$SOLIDHIST
280
    1
  9
$SHOWHIST
280
    1
  9
$DWFFRAME
280
    2
  9
$DGNFRAME
280
    0
  9
$REALWORLDSCALE
290
    1
  9
$INTERFERECOLOR
 62
    1
  9
$CSHADOW
280
    0
  9
$SHADOWPLANELOCATION
 40
0
  0
ENDSEC
  0
SECTION
  2
CLASSES
  0
ENDSEC
  0
SECTION
  2
TABLES
  0
TABLE
  2
VPORT
  5
8
330
0
100
AcDbSymbolTable
 70
    1
  0
VPORT
  5
31
330
2
100
AcDbSymbolTableRecord
100
AcDbViewportTableRecord
  2
*ACTIVE
 70
    0
 10
0
 20
0
 11
1
 21
1
 12
26.90296692934956
 22
22.50592287207953
 13
0
 23
0
 14
10
 24
10
 15
10
 25
10
 16
0
 26
0
 36
1
 17
0
 27
0
 37
0
 40
72.66693863067323
 41
1.539808917197452
 42
50
 43
0
 44
0
 50
0
 51
0
 71
    0
 72
  100
 73
    1
 74
    3
 75
    0
 76
    1
 77
    0
 78
    0
281
    0
 65
    1
110
0
120
0
130
0
111
1
121
0
131
0
112
0
122
1
132
0
 79
    0
146
0
348
10020
 60
    7
 61
    5
292
1
282
    1
141
0
142
0
 63
  250
421
3358443
  0
ENDTAB
  0
TABLE
  2
LTYPE
  5
5
330
0
100
AcDbSymbolTable
 70
    4
  0
LTYPE
  5
14
330
5
100
AcDbSymbolTableRecord
100
AcDbLinetypeTableRecord
  2
ByBlock
 70
    0
  3

 72
   65
 73
    0
 40
0
  0
LTYPE
  5
15
330
5
100
AcDbSymbolTableRecord
100
AcDbLinetypeTableRecord
  2
ByLayer
 70
    0
  3

 72
   65
 73
    0
 40
0
  0
LTYPE
  5
16
330
5
100
AcDbSymbolTableRecord
100
AcDbLinetypeTableRecord
  2
Continuous
 70
    0
  3
Solid line
 72
   65
 73
    0
 40
0
  0
LTYPE
  5
32
330
5
100
AcDbSymbolTableRecord
100
AcDbLinetypeTableRecord
  2
DOT
 70
    0
  3
Dot . . . . . . . . . . . . . . . . . . . . . .
 72
   65
 73
    2
 40
6.35
 49
0
 74
    0
 49
-6.35
 74
    0
  0
LTYPE
  5
33
330
5
100
AcDbSymbolTableRecord
100
AcDbLinetypeTableRecord
  2
DOTTINY
 70
    0
  3
Dot (.15x) .....................................
 72
   65
 73
    2
 40
0.9525
 49
0
 74
    0
 49
-0.9525
 74
    0
  0
LTYPE
  5
34
330
5
100
AcDbSymbolTableRecord
100
AcDbLinetypeTableRecord
  2
DOT2
 70
    0
  3
Dot (.5x) .....................................
 72
   65
 73
    2
 40
3.175
 49
0
 74
    0
 49
-3.175
 74
    0
  0
LTYPE
  5
35
330
5
100
AcDbSymbolTableRecord
100
AcDbLinetypeTableRecord
  2
DOTX2
 70
    0
  3
Dot (2x) .  .  .  .  .  .  .  .  .  .  .  .  .
 72
   65
 73
    2
 40
12.7
 49
0
 74
    0
 49
-12.7
 74
    0
  0
LTYPE
  5
36
330
5
100
AcDbSymbolTableRecord
100
AcDbLinetypeTableRecord
  2
DASHED
 70
    0
  3
Dashed _ _ _ _ _ _ _ _ _ _ _ _ _ _ _ _ _
 72
   65
 73
    2
 40
19.05
 49
12.7
 74
    0
 49
-6.35
 74
    0
  0
LTYPE
  5
37
330
5
100
AcDbSymbolTableRecord
100
AcDbLinetypeTableRecord
  2
DASHEDTINY
 70
    0
  3
Dashed (.15x) _ _ _ _ _ _ _ _ _ _ _ _ _ _ _ _ _
 72
   65
 73
    2
 40
2.8575
 49
1.905
 74
    0
 49
-0.9525
 74
    0
  0
LTYPE
  5
38
330
5
100
AcDbSymbolTableRecord
100
AcDbLinetypeTableRecord
  2
DASHED2
 70
    0
  3
Dashed (.5x) _ _ _ _ _ _ _ _ _ _ _ _ _ _ _ _ _
 72
   65
 73
    2
 40
9.524999999999999
 49
6.35
 74
    0
 49
-3.175
 74
    0
  0
LTYPE
  5
39
330
5
100
AcDbSymbolTableRecord
100
AcDbLinetypeTableRecord
  2
DASHEDX2
 70
    0
  3
Dashed (2x) ____  ____  ____  ____  ____  ___
 72
   65
 73
    2
 40
38.09999999999999
 49
25.4
 74
    0
 49
-12.7
 74
    0
  0
LTYPE
  5
3A
330
5
100
AcDbSymbolTableRecord
100
AcDbLinetypeTableRecord
  2
DASHDOT
 70
    0
  3
Dash dot __ . __ . __ . __ . __ . __ . __ . __
 72
   65
 73
    4
 40
25.4
 49
12.7
 74
    0
 49
-6.35
 74
    0
 49
0
 74
    0
 49
-6.35
 74
    0
  0
LTYPE
  5
3B
330
5
100
AcDbSymbolTableRecord
100
AcDbLinetypeTableRecord
  2
DASHDOTTINY
 70
    0
  3
Dash dot (.15x) _._._._._._._._._._._._._._._.
 72
   65
 73
    4
 40
3.81
 49
1.905
 74
    0
 49
-0.9525
 74
    0
 49
0
 74
    0
 49
-0.9525
 74
    0
  0
LTYPE
  5
3C
330
5
100
AcDbSymbolTableRecord
100
AcDbLinetypeTableRecord
  2
DASHDOT2
 70
    0
  3
Dash dot (.5x) _._._._._._._._._._._._._._._.
 72
   65
 73
    4
 40
12.7
 49
6.35
 74
    0
 49
-3.175
 74
    0
 49
0
 74
    0
 49
-3.175
 74
    0
  0
LTYPE
  5
3D
330
5
100
AcDbSymbolTableRecord
100
AcDbLinetypeTableRecord
  2
DASHDOTX2
 70
    0
  3
Dash dot (2x) ____  .  ____  .  ____  .  ___
 72
   65
 73
    4
 40
50.8
 49
25.4
 74
    0
 49
-12.7
 74
    0
 49
0
 74
    0
 49
-12.7
 74
    0
  0
LTYPE
  5
3E
330
5
100
AcDbSymbolTableRecord
100
AcDbLinetypeTableRecord
  2
DIVIDE
 70
    0
  3
Divide ____ . . ____ . . ____ . . ____ . . ____
 72
   65
 73
    6
 40
31.75
 49
12.7
 74
    0
 49
-6.35
 74
    0
 49
0
 74
    0
 49
-6.35
 74
    0
 49
0
 74
    0
 49
-6.35
 74
    0
  0
LTYPE
  5
3F
330
5
100
AcDbSymbolTableRecord
100
AcDbLinetypeTableRecord
  2
DIVIDETINY
 70
    0
  3
Divide (.15x) __..__..__..__..__..__..__..__.._
 72
   65
 73
    6
 40
4.7625
 49
1.905
 74
    0
 49
-0.9525
 74
    0
 49
0
 74
    0
 49
-0.9525
 74
    0
 49
0
 74
    0
 49
-0.9525
 74
    0
  0
LTYPE
  5
40
330
5
100
AcDbSymbolTableRecord
100
AcDbLinetypeTableRecord
  2
DIVIDE2
 70
    0
  3
Divide (.5x) __..__..__..__..__..__..__..__.._
 72
   65
 73
    6
 40
15.875
 49
6.35
 74
    0
 49
-3.175
 74
    0
 49
0
 74
    0
 49
-3.175
 74
    0
 49
0
 74
    0
 49
-3.175
 74
    0
  0
LTYPE
  5
41
330
5
100
AcDbSymbolTableRecord
100
AcDbLinetypeTableRecord
  2
DIVIDEX2
 70
    0
  3
Divide (2x) ________  .  .  ________  .  .  _
 72
   65
 73
    6
 40
63.5
 49
25.4
 74
    0
 49
-12.7
 74
    0
 49
0
 74
    0
 49
-12.7
 74
    0
 49
0
 74
    0
 49
-12.7
 74
    0
  0
LTYPE
  5
42
330
5
100
AcDbSymbolTableRecord
100
AcDbLinetypeTableRecord
  2
BORDER
 70
    0
  3
Border __ __ . __ __ . __ __ . __ __ . __ __ .
 72
   65
 73
    6
 40
44.45
 49
12.7
 74
    0
 49
-6.35
 74
    0
 49
12.7
 74
    0
 49
-6.35
 74
    0
 49
0
 74
    0
 49
-6.35
 74
    0
  0
LTYPE
  5
43
330
5
100
AcDbSymbolTableRecord
100
AcDbLinetypeTableRecord
  2
BORDERTINY
 70
    0
  3
Border (.15x) __.__.__.__.__.__.__.__.__.__.__.
 72
   65
 73
    6
 40
6.6675
 49
1.905
 74
    0
 49
-0.9525
 74
    0
 49
1.905
 74
    0
 49
-0.9525
 74
    0
 49
0
 74
    0
 49
-0.9525
 74
    0
  0
LTYPE
  5
44
330
5
100
AcDbSymbolTableRecord
100
AcDbLinetypeTableRecord
  2
BORDER2
 70
    0
  3
Border (.5x) __.__.__.__.__.__.__.__.__.__.__.
 72
   65
 73
    6
 40
22.225
 49
6.35
 74
    0
 49
-3.175
 74
    0
 49
6.35
 74
    0
 49
-3.175
 74
    0
 49
0
 74
    0
 49
-3.175
 74
    0
  0
LTYPE
  5
45
330
5
100
AcDbSymbolTableRecord
100
AcDbLinetypeTableRecord
  2
BORDERX2
 70
    0
  3
Border (2x) ____  ____  .  ____  ____  .  ___
 72
   65
 73
    6
 40
88.89999999999999
 49
25.4
 74
    0
 49
-12.7
 74
    0
 49
25.4
 74
    0
 49
-12.7
 74
    0
 49
0
 74
    0
 49
-12.7
 74
    0
  0
LTYPE
  5
46
330
5
100
AcDbSymbolTableRecord
100
AcDbLinetypeTableRecord
  2
CENTER
 70
    0
  3
Center ____ _ ____ _ ____ _ ____ _ ____ _ ____
 72
   65
 73
    4
 40
50.8
 49
31.75
 74
    0
 49
-6.35
 74
    0
 49
6.35
 74
    0
 49
-6.35
 74
    0
  0
LTYPE
  5
47
330
5
100
AcDbSymbolTableRecord
100
AcDbLinetypeTableRecord
  2
CENTERTINY
 70
    0
  3
Center (.15x) ___ _ ___ _ ___ _ ___ _ ___ _ ___
 72
   65
 73
    4
 40
7.619999999999999
 49
4.7625
 74
    0
 49
-0.9525
 74
    0
 49
0.9525
 74
    0
 49
-0.9525
 74
    0
  0
LTYPE
  5
48
330
5
100
AcDbSymbolTableRecord
100
AcDbLinetypeTableRecord
  2
CENTER2
 70
    0
  3
Center (.5x) ___ _ ___ _ ___ _ ___ _ ___ _ ___
 72
   65
 73
    4
 40
28.575
 49
19.05
 74
    0
 49
-3.175
 74
    0
 49
3.175
 74
    0
 49
-3.175
 74
    0
  0
LTYPE
  5
49
330
5
100
AcDbSymbolTableRecord
100
AcDbLinetypeTableRecord
  2
CENTERX2
 70
    0
  3
Center (2x) ________  __  ________  __  _____
 72
   65
 73
    4
 40
101.6
 49
63.5
 74
    0
 49
-12.7
 74
    0
 49
12.7
 74
    0
 49
-12.7
 74
    0
  0
ENDTAB
  0
TABLE
  2
LAYER
  5
2
330
0
100
AcDbSymbolTable
 70
    1
  0
LAYER
  5
10
330
2
100
AcDbSymbolTableRecord
100
AcDbLayerTableRecord
  2
0
 70
    1
 62
    7
  6
CONTINUOUS
370
    0
390
F
  0
LAYER
  5
4A
330
2
100
AcDbSymbolTableRecord
100
AcDbLayerTableRecord
  2
check
 70
    0
 62
    7
  6
CONTINUOUS
370
    0
390
F
  0
ENDTAB
  0
TABLE
  2
STYLE
  5
3
330
0
100
AcDbSymbolTable
 70
    3
  0
STYLE
  5
4B
330
2
100
AcDbSymbolTableRecord
100
AcDbTextStyleTableRecord
  2
Standard
 70
    0
 40
0
 41
1
 50
0
 71
    0
 42
1
  3
txt
  4

  0
ENDTAB
  0
TABLE
  2
VIEW
  5
6
330
0
100
AcDbSymbolTable
 70
    0
  0
ENDTAB
  0
TABLE
  2
UCS
  5
7
330
0
100
AcDbSymbolTable
 70
    0
  0
ENDTAB
  0
TABLE
  2
APPID
  5
9
330
0
100
AcDbSymbolTable
 70
    1
  0
APPID
  5
12
330
9
100
AcDbSymbolTableRecord
100
AcDbRegAppTableRecord
  2
ACAD
 70
    0
  0
APPID
  5
4C
330
9
100
AcDbSymbolTableRecord
100
AcDbRegAppTableRecord
  2
LibreCad
 70
    0
  0
ENDTAB
  0
TABLE
  2
DIMSTYLE
  5
A
330
0
100
AcDbSymbolTable
 70
    1
100
AcDbDimStyleTable
 71
    1
  0
DIMSTYLE
105
4D
330
A
100
AcDbSymbolTableRecord
100
AcDbDimStyleTableRecord
  2
Standard
 70
    0
 40
1
 41
2.5
 42
0.625
 43
0.38
 44
1.25
 45
0
 46
0
 47
0
 48
0
 49
1
140
2.5
141
0.09
142
0
143
25.4
144
1
145
0
146
1
147
0.625
148
0
 71
    0
 72
    0
 73
    0
 74
    1
 75
    0
 76
    0
 77
    0
 78
    1
 79
    0
170
    0
171
    2
172
    0
173
    0
174
    0
175
    0
176
    0
177
    0
178
    0
179
    0
271
    2
272
    4
273
    2
274
    2
275
    0
276
    0
277
    2
278
    0
279
    0
280
    0
281
    0
282
    0
283
    1
284
    0
285
    0
286
    0
288
    0
289
    3
340
standard
341

371
   -2
372
   -2
  0
ENDTAB
  0
TABLE
  2
BLOCK_RECORD
  5
1
330
0
100
AcDbSymbolTable
 70
    2
  0
BLOCK_RECORD
  5
1F
330
1
100
AcDbSymbolTableRecord
100
AcDbBlockTableRecord
  2
*Model_Space
 70
    0
280
    1
281
    0
  0
BLOCK_RECORD
  5
1E
330
1
100
AcDbSymbolTableRecord
100
AcDbBlockTableRecord
  2
*Paper_Space
 70
    0
280
    1
281
    0
  0
BLOCK_RECORD
  5
4E
330
1
100
AcDbSymbolTableRecord
100
AcDbBlockTableRecord
  2
*D9
 70
    0
280
    1
281
    0
  0
BLOCK_RECORD
  5
51
330
1
100
AcDbSymbolTableRecord
100
AcDbBlockTableRecord
  2
*D5
 70
    0
280
    1
281
    0
  0
BLOCK_RECORD
  5
54
330
1
100
AcDbSymbolTableRecord
100
AcDbBlockTableRecord
  2
*D6
 70
    0
280
    1
281
    0
  0
BLOCK_RECORD
  5
57
330
1
100
AcDbSymbolTableRecord
100
AcDbBlockTableRecord
  2
*D16
 70
    0
280
    1
281
    0
  0
BLOCK_RECORD
  5
5A
330
1
100
AcDbSymbolTableRecord
100
AcDbBlockTableRecord
  2
*D3
 70
    0
280
    1
281
    0
  0
BLOCK_RECORD
  5
5D
330
1
100
AcDbSymbolTableRecord
100
AcDbBlockTableRecord
  2
*D12
 70
    0
280
    1
281
    0
  0
BLOCK_RECORD
  5
60
330
1
100
AcDbSymbolTableRecord
100
AcDbBlockTableRecord
  2
*D2
 70
    0
280
    1
281
    0
  0
BLOCK_RECORD
  5
63
330
1
100
AcDbSymbolTableRecord
100
AcDbBlockTableRecord
  2
*D15
 70
    0
280
    1
281
    0
  0
BLOCK_RECORD
  5
66
330
1
100
AcDbSymbolTableRecord
100
AcDbBlockTableRecord
  2
*D14
 70
    0
280
    1
281
    0
  0
BLOCK_RECORD
  5
69
330
1
100
AcDbSymbolTableRecord
100
AcDbBlockTableRecord
  2
*D7
 70
    0
280
    1
281
    0
  0
BLOCK_RECORD
  5
6C
330
1
100
AcDbSymbolTableRecord
100
AcDbBlockTableRecord
  2
*D8
 70
    0
280
    1
281
    0
  0
BLOCK_RECORD
  5
6F
330
1
100
AcDbSymbolTableRecord
100
AcDbBlockTableRecord
  2
*D13
 70
    0
280
    1
281
    0
  0
BLOCK_RECORD
  5
72
330
1
100
AcDbSymbolTableRecord
100
AcDbBlockTableRecord
  2
*D1
 70
    0
280
    1
281
    0
  0
BLOCK_RECORD
  5
75
330
1
100
AcDbSymbolTableRecord
100
AcDbBlockTableRecord
  2
*D11
 70
    0
280
    1
281
    0
  0
BLOCK_RECORD
  5
78
330
1
100
AcDbSymbolTableRecord
100
AcDbBlockTableRecord
  2
*D4
 70
    0
280
    1
281
    0
  0
BLOCK_RECORD
  5
7B
330
1
100
AcDbSymbolTableRecord
100
AcDbBlockTableRecord
  2
*D10
 70
    0
280
    1
281
    0
  0
ENDTAB
  0
ENDSEC
  0
SECTION
  2
BLOCKS
  0
BLOCK
  5
20
330
1F
100
AcDbEntity
  8
0
100
AcDbBlockBegin
  2
*Model_Space
 70
    0
 10
0
 20
0
 30
0
  3
*Model_Space
  1

  0
ENDBLK
  5
21
330
1F
100
AcDbEntity
  8
0
100
AcDbBlockEnd
  0
BLOCK
  5
1C
330
1B
100
AcDbEntity
  8
0
100
AcDbBlockBegin
  2
*Paper_Space
 70
    0
 10
0
 20
0
 30
0
  3
*Paper_Space
  1

  0
ENDBLK
  5
1D
330
1F
100
AcDbEntity
  8
0
100
AcDbBlockEnd
  0
BLOCK
  5
4F
330
4E
100
AcDbEntity
  8
0
100
AcDbBlockBegin
  2
*D9
 70
    1
 10
0
 20
0
  3
*D9
  1

  0
LINE
  5
7E
100
AcDbEntity
  8
check
  6
ByBlock
 62
    0
370
   -2
100
AcDbLine
 10
-11.50008864822326
 20
-50
 11
-21
 21
-50
  0
SOLID
  5
7F
100
AcDbEntity
  8
check
  6
ByBlock
 62
    0
370
   -2
100
AcDbTrace
 10
-11.50008864822326
 20
-50
 30
0
 11
-14.00008864822326
 21
-50.41628465777284
 31
0
 12
-14.00008864822326
 22
-49.58371534222716
 32
0
 13
-14.00008864822326
 23
-49.58371534222716
 33
0
  0
SOLID
  5
80
100
AcDbEntity
  8
check
  6
ByBlock
 62
    0
370
   -2
100
AcDbTrace
 10
-21
 20
-50
 30
0
 11
-18.5
 21
-49.58371534222716
 31
0
 12
-18.5
 22
-50.41628465777284
 32
0
 13
-18.5
 23
-50.41628465777284
 33
0
  0
MTEXT
  5
81
100
AcDbEntity
  8
check
  6
CONTINUOUS
 62
    0
370
   -2
100
AcDbMText
 10
-5.87508864822318
 20
-48.125
 30
0
 40
2.5
 41
10.00000000000015
 71
    5
 72
    1
  1
9.4999
  7
standard
210
0
220
0
230
1
 50
360
 73
    2
 44
1
  0
LINE
  5
82
100
AcDbEntity
  8
check
  6
ByBlock
 62
    0
370
   -2
100
AcDbLine
 10
-11.50008864822326
 20
7.37448571724303
 11
-11.50008864822326
 21
-51.25
  0
LINE
  5
83
100
AcDbEntity
  8
check
  6
ByBlock
 62
    0
370
   -2
100
AcDbLine
 10
-21
 20
-0.625
 11
-21
 21
-51.25
  0
ENDBLK
  5
50
330
4E
100
AcDbEntity
  8
0
100
AcDbBlockEnd
  0
BLOCK
  5
52
330
51
100
AcDbEntity
  8
0
100
AcDbBlockBegin
  2
*D5
 70
    1
 10
0
 20
0
  3
*D5
  1

  0
LINE
  5
84
100
AcDbEntity
  8
check
  6
ByBlock
 62
    0
370
   -2
100
AcDbLine
 10
-13.8
 20
-10
 11
-26
 21
-10
  0
SOLID
  5
85
100
AcDbEntity
  8
check
  6
ByBlock
 62
    0
370
   -2
100
AcDbTrace
 10
-18.8
 20
-10
 30
0
 11
-16.3
 21
-9.58371534222716
 31
0
 12
-16.3
 22
-10.41628465777284
 32
0
 13
-16.3
 23
-10.41628465777284
 33
0
  0
SOLID
  5
86
100
AcDbEntity
  8
check
  6
ByBlock
 62
    0
370
   -2
100
AcDbTrace
 10
-21
 20
-10
 30
0
 11
-23.5
 21
-10.41628465777284
 31
0
 12
-23.5
 22
-9.58371534222716
 32
0
 13
-23.5
 23
-9.58371534222716
 33
0
  0
MTEXT
  5
87
100
AcDbEntity
  8
check
  6
CONTINUOUS
 62
    0
370
   -2
100
AcDbMText
 10
-13.31388888888889
 20
-8.125000000000002
 30
0
 40
2.5
 41
9.722222222222221
 71
    5
 72
    1
  1
2.2000
  7
standard
210
0
220
0
230
1
 50
360
 73
    2
 44
1
  0
LINE
  5
88
100
AcDbEntity
  8
check
  6
ByBlock
 62
    0
370
   -2
100
AcDbLine
 10
-18.8
 20
11.875
 11
-18.8
 21
-11.25
  0
LINE
  5
89
100
AcDbEntity
  8
check
  6
ByBlock
 62
    0
370
   -2
100
AcDbLine
 10
-21
 20
-0.625
 11
-21
 21
-11.25
  0
ENDBLK
  5
53
330
51
100
AcDbEntity
  8
0
100
AcDbBlockEnd
  0
BLOCK
  5
55
330
54
100
AcDbEntity
  8
0
100
AcDbBlockBegin
  2
*D6
 70
    1
 10
0
 20
0
  3
*D6
  1

  0
LINE
  5
8A
100
AcDbEntity
  8
check
  6
ByBlock
 62
    0
370
   -2
100
AcDbLine
 10
-3
 20
-18
 11
-21
 21
-18
  0
SOLID
  5
8B
100
AcDbEntity
  8
check
  6
ByBlock
 62
    0
370
   -2
100
AcDbTrace
 10
-3
 20
-18
 30
0
 11
-5.5
 21
-18.41628465777284
 31
0
 12
-5.5
 22
-17.58371534222716
 32
0
 13
-5.5
 23
-17.58371534222716
 33
0
  0
SOLID
  5
8C
100
AcDbEntity
  8
check
  6
ByBlock
 62
    0
370
   -2
100
AcDbTrace
 10
-21
 20
-18
 30
0
 11
-18.5
 21
-17.58371534222716
 31
0
 12
-18.5
 22
-18.41628465777284
 32
0
 13
-18.5
 23
-18.41628465777284
 33
0
  0
MTEXT
  5
8D
100
AcDbEntity
  8
check
  6
CONTINUOUS
 62
    0
370
   -2
100
AcDbMText
 10
-12
 20
-16.125
 30
0
 40
2.5
 41
11.11111111111111
 71
    5
 72
    1
  1
18.0000
  7
standard
210
0
220
0
230
1
 50
360
 73
    2
 44
1
  0
LINE
  5
8E
100
AcDbEntity
  8
check
  6
ByBlock
 62
    0
370
   -2
100
AcDbLine
 10
-3
 20
11.875
 11
-3
 21
-19.25
  0
LINE
  5
8F
100
AcDbEntity
  8
check
  6
ByBlock
 62
    0
370
   -2
100
AcDbLine
 10
-21
 20
0.375
 11
-21
 21
-19.25
  0
ENDBLK
  5
56
330
54
100
AcDbEntity
  8
0
100
AcDbBlockEnd
  0
BLOCK
  5
58
330
57
100
AcDbEntity
  8
0
100
AcDbBlockBegin
  2
*D16
 70
    1
 10
0
 20
0
  3
*D16
  1

  0
SOLID
  5
90
100
AcDbEntity
  8
check
  6
ByBlock
 62
    0
370
   -2
100
AcDbTrace
 10
-1.060638295217912
 20
32.36061777863569
 30
0
 11
-3.122762952599381
 21
33.83402702718696
 31
0
 12
-2.534047543769188
 22
34.42274243601715
 32
0
 13
-2.534047543769188
 23
34.42274243601715
 33
0
  0
LINE
  5
91
100
AcDbEntity
  8
check
  6
ByBlock
 62
    0
370
   -2
100
AcDbLine
 10
7.464779344990013e-06
 20
31.29997201863843
 11
-11.07798436202746
 21
42.3779638454452
  0
MTEXT
  5
92
100
AcDbEntity
  8
check
  6
CONTINUOUS
 62
    0
370
   -2
100
AcDbMText
 10
-4.743486113897914
 20
38.69511602676523
 30
0
 40
2.5
 41
9.166666666666824
 71
    5
 72
    1
  1
1.5000
  7
standard
210
0
220
0
230
1
 50
315.0000000000001
 73
    2
 44
1
  0
ENDBLK
  5
59
330
57
100
AcDbEntity
  8
0
100
AcDbBlockEnd
  0
BLOCK
  5
5B
330
5A
100
AcDbEntity
  8
0
100
AcDbBlockBegin
  2
*D3
 70
    1
 10
0
 20
0
  3
*D3
  1

  0
LINE
  5
93
100
AcDbEntity
  8
check
  6
ByBlock
 62
    0
370
   -2
100
AcDbLine
 10
-30
 20
12.5
 11
-30
 21
6.394884621840902e-16
  0
SOLID
  5
94
100
AcDbEntity
  8
check
  6
ByBlock
 62
    0
370
   -2
100
AcDbTrace
 10
-30
 20
12.5
 30
0
 11
-29.58371534222716
 21
9.999999999999998
 31
0
 12
-30.41628465777284
 22
9.999999999999998
 32
0
 13
-30.41628465777284
 23
9.999999999999998
 33
0
  0
SOLID
  5
95
100
AcDbEntity
  8
check
  6
ByBlock
 62
    0
370
   -2
100
AcDbTrace
 10
-30
 20
6.394884621840902e-16
 30
0
 11
-30.41628465777284
 21
2.5
 31
0
 12
-29.58371534222716
 22
2.5
 32
0
 13
-29.58371534222716
 23
2.5
 33
0
  0
MTEXT
  5
96
100
AcDbEntity
  8
check
  6
CONTINUOUS
 62
    0
370
   -2
100
AcDbMText
 10
-31.875
 20
6.249999999999999
 30
0
 40
2.5
 41
11.11111111111127
 71
    5
 72
    1
  1
12.5000
  7
standard
210
0
220
0
230
1
 50
90
 73
    2
 44
1
  0
LINE
  5
97
100
AcDbEntity
  8
check
  6
ByBlock
 62
    0
370
   -2
100
AcDbLine
 10
-19.425
 20
12.5
 11
-31.25
 21
12.5
  0
LINE
  5
98
100
AcDbEntity
  8
check
  6
ByBlock
 62
    0
370
   -2
100
AcDbLine
 10
-21.625
 20
7.654042494670958e-17
 11
-31.25
 21
7.925693120775094e-16
  0
ENDBLK
  5
5C
330
5A
100
AcDbEntity
  8
0
100
AcDbBlockEnd
  0
BLOCK
  5
5E
330
5D
100
AcDbEntity
  8
0
100
AcDbBlockBegin
  2
*D12
 70
    1
 10
0
 20
0
  3
*D12
  1

  0
LINE
  5
99
100
AcDbEntity
  8
check
  6
ByBlock
 62
    0
370
   -2
100
AcDbLine
 10
-70
 20
50.09999999999999
 11
-70
 21
0
  0
SOLID
  5
9A
100
AcDbEntity
  8
check
  6
ByBlock
 62
    0
370
   -2
100
AcDbTrace
 10
-70
 20
50.09999999999999
 30
0
 11
-69.58371534222717
 21
47.59999999999999
 31
0
 12
-70.41628465777283
 22
47.59999999999999
 32
0
 13
-70.41628465777283
 23
47.59999999999999
 33
0
  0
SOLID
  5
9B
100
AcDbEntity
  8
check
  6
ByBlock
 62
    0
370
   -2
100
AcDbTrace
 10
-70
 20
0
 30
0
 11
-70.41628465777283
 21
2.5
 31
0
 12
-69.58371534222717
 22
2.5
 32
0
 13
-69.58371534222717
 23
2.5
 33
0
  0
MTEXT
  5
9C
100
AcDbEntity
  8
check
  6
CONTINUOUS
 62
    0
370
   -2
100
AcDbMText
 10
-71.875
 20
25.05
 30
0
 40
2.5
 41
11.11111111111127
 71
    5
 72
    1
  1
50.1000
  7
standard
210
0
220
0
230
1
 50
90
 73
    2
 44
1
  0
LINE
  5
9D
100
AcDbEntity
  8
check
  6
ByBlock
 62
    0
370
   -2
100
AcDbLine
 10
-19.425
 20
50.1
 11
-71.25
 21
50.09999999999999
  0
LINE
  5
9E
100
AcDbEntity
  8
check
  6
ByBlock
 62
    0
370
   -2
100
AcDbLine
 10
-21.625
 20
7.654042494670958e-17
 11
-71.25
 21
1.530808498934192e-16
  0
ENDBLK
  5
5F
330
5D
100
AcDbEntity
  8
0
100
AcDbBlockEnd
  0
BLOCK
  5
61
330
60
100
AcDbEntity
  8
0
100
AcDbBlockBegin
  2
*D2
 70
    1
 10
0
 20
0
  3
*D2
  1

  0
LINE
  5
9F
100
AcDbEntity
  8
check
  6
ByBlock
 62
    0
370
   -2
100
AcDbLine
 10
-39.99999999999999
 20
52
 11
-40
 21
1.350031197944191e-15
  0
SOLID
  5
A0
100
AcDbEntity
  8
check
  6
ByBlock
 62
    0
370
   -2
100
AcDbTrace
 10
-39.99999999999999
 20
52
 30
0
 11
-39.58371534222715
 21
49.5
 31
0
 12
-40.41628465777283
 22
49.5
 32
0
 13
-40.41628465777283
 23
49.5
 33
0
  0
SOLID
  5
A1
100
AcDbEntity
  8
check
  6
ByBlock
 62
    0
370
   -2
100
AcDbTrace
 10
-40
 20
1.350031197944191e-15
 30
0
 11
-40.41628465777284
 21
2.500000000000001
 31
0
 12
-39.58371534222716
 22
2.500000000000001
 32
0
 13
-39.58371534222716
 23
2.500000000000001
 33
0
  0
MTEXT
  5
A2
100
AcDbEntity
  8
check
  6
CONTINUOUS
 62
    0
370
   -2
100
AcDbMText
 10
-41.875
 20
26
 30
0
 40
2.5
 41
11.66666666666682
 71
    5
 72
    1
  1
52.0000
  7
standard
210
0
220
0
230
1
 50
90
 73
    2
 44
1
  0
LINE
  5
A3
100
AcDbEntity
  8
check
  6
ByBlock
 62
    0
370
   -2
100
AcDbLine
 10
-21.625
 20
52
 11
-41.24999999999999
 21
52
  0
LINE
  5
A4
100
AcDbEntity
  8
check
  6
ByBlock
 62
    0
370
   -2
100
AcDbLine
 10
-21.625
 20
7.654042494670958e-17
 11
-41.25
 21
1.50311204783761e-15
  0
ENDBLK
  5
62
330
60
100
AcDbEntity
  8
0
100
AcDbBlockEnd
  0
BLOCK
  5
64
330
63
100
AcDbEntity
  8
0
100
AcDbBlockBegin
  2
*D15
 70
    1
 10
0
 20
0
  3
*D15
  1

  0
LINE
  5
A5
100
AcDbEntity
  8
check
  6
ByBlock
 62
    0
370
   -2
100
AcDbLine
 10
50
 20
31.29997201863843
 11
50
 21
-2.842170943040401e-15
  0
SOLID
  5
A6
100
AcDbEntity
  8
check
  6
ByBlock
 62
    0
370
   -2
100
AcDbTrace
 10
50
 20
31.29997201863843
 30
0
 11
50.41628465777284
 21
28.79997201863843
 31
0
 12
49.58371534222716
 22
28.79997201863843
 32
0
 13
49.58371534222716
 23
28.79997201863843
 33
0
  0
SOLID
  5
A7
100
AcDbEntity
  8
check
  6
ByBlock
 62
    0
370
   -2
100
AcDbTrace
 10
50
 20
-2.842170943040401e-15
 30
0
 11
49.58371534222716
 21
2.499999999999997
 31
0
 12
50.41628465777284
 22
2.499999999999997
 32
0
 13
50.41628465777284
 23
2.499999999999997
 33
0
  0
MTEXT
  5
A8
100
AcDbEntity
  8
check
  6
CONTINUOUS
 62
    0
370
   -2
100
AcDbMText
 10
48.125
 20
15.64998600931921
 30
0
 40
2.5
 41
11.11111111111142
 71
    5
 72
    1
  1
31.3000
  7
standard
210
0
220
0
230
1
 50
90
 73
    2
 44
1
  0
LINE
  5
A9
100
AcDbEntity
  8
check
  6
ByBlock
 62
    0
370
   -2
100
AcDbLine
 10
0.625007464779345
 20
31.29997201863843
 11
51.25
 21
31.29997201863843
  0
LINE
  5
AA
100
AcDbEntity
  8
check
  6
ByBlock
 62
    0
370
   -2
100
AcDbLine
 10
10.625
 20
0
 11
51.25
 21
-2.842170943040401e-15
  0
ENDBLK
  5
65
330
63
100
AcDbEntity
  8
0
100
AcDbBlockEnd
  0
BLOCK
  5
67
330
66
100
AcDbEntity
  8
0
100
AcDbBlockBegin
  2
*D14
 70
    1
 10
0
 20
0
  3
*D14
  1

  0
SOLID
  5
AB
100
AcDbEntity
  8
check
  6
ByBlock
 62
    0
370
   -2
100
AcDbTrace
 10
-11.25352612530807
 20
9.478852174026368
 30
0
 11
-11.25314690244296
 21
12.01327375941564
 31
0
 12
-10.43190571866118
 22
11.87639942563132
 32
0
 13
-10.43190571866118
 23
11.87639942563132
 33
0
  0
LINE
  5
AC
100
AcDbEntity
  8
check
  6
ByBlock
 62
    0
370
   -2
100
AcDbLine
 10
-11.50008864822326
 20
7.99948571724303
 11
-8.878860528940081
 21
23.72676214756523
  0
MTEXT
  5
AD
100
AcDbEntity
  8
check
  6
CONTINUOUS
 62
    0
370
   -2
100
AcDbMText
 10
-11.91568164099691
 20
16.9110570218628
 30
0
 40
2.5
 41
9.444444444444445
 71
    5
 72
    1
  1
1.4998
  7
standard
210
0
220
0
230
1
 50
80.53762327252517
 73
    2
 44
1
  0
ENDBLK
  5
68
330
66
100
AcDbEntity
  8
0
100
AcDbBlockEnd
  0
BLOCK
  5
6A
330
69
100
AcDbEntity
  8
0
100
AcDbBlockBegin
  2
*D7
 70
    1
 10
0
 20
0
  3
*D7
  1

  0
LINE
  5
AE
100
AcDbEntity
  8
check
  6
ByBlock
 62
    0
370
   -2
100
AcDbLine
 10
3.000000000000004
 20
-30
 11
-21
 21
-30
  0
SOLID
  5
AF
100
AcDbEntity
  8
check
  6
ByBlock
 62
    0
370
   -2
100
AcDbTrace
 10
3.000000000000004
 20
-30
 30
0
 11
0.5000000000000036
 21
-30.41628465777284
 31
0
 12
0.5000000000000036
 22
-29.58371534222716
 32
0
 13
0.5000000000000036
 23
-29.58371534222716
 33
0
  0
SOLID
  5
B0
100
AcDbEntity
  8
check
  6
ByBlock
 62
    0
370
   -2
100
AcDbTrace
 10
-21
 20
-30
 30
0
 11
-18.5
 21
-29.58371534222716
 31
0
 12
-18.5
 22
-30.41628465777284
 32
0
 13
-18.5
 23
-30.41628465777284
 33
0
  0
MTEXT
  5
B1
100
AcDbEntity
  8
check
  6
CONTINUOUS
 62
    0
370
   -2
100
AcDbMText
 10
-8.999999999999998
 20
-28.125
 30
0
 40
2.5
 41
11.94444444444445
 71
    5
 72
    1
  1
24.0000
  7
standard
210
0
220
0
230
1
 50
360
 73
    2
 44
1
  0
LINE
  5
B2
100
AcDbEntity
  8
check
  6
ByBlock
 62
    0
370
   -2
100
AcDbLine
 10
3
 20
33.675
 11
3.000000000000003
 21
-31.25
  0
LINE
  5
B3
100
AcDbEntity
  8
check
  6
ByBlock
 62
    0
370
   -2
100
AcDbLine
 10
-21
 20
-0.625
 11
-21
 21
-31.25
  0
ENDBLK
  5
6B
330
69
100
AcDbEntity
  8
0
100
AcDbBlockEnd
  0
BLOCK
  5
6D
330
6C
100
AcDbEntity
  8
0
100
AcDbBlockBegin
  2
*D8
 70
    1
 10
0
 20
0
  3
*D8
  1

  0
LINE
  5
B4
100
AcDbEntity
  8
check
  6
ByBlock
 62
    0
370
   -2
100
AcDbLine
 10
18.8
 20
-40
 11
-21
 21
-40
  0
SOLID
  5
B5
100
AcDbEntity
  8
check
  6
ByBlock
 62
    0
370
   -2
100
AcDbTrace
 10
18.8
 20
-40
 30
0
 11
16.3
 21
-40.41628465777284
 31
0
 12
16.3
 22
-39.58371534222716
 32
0
 13
16.3
 23
-39.58371534222716
 33
0
  0
SOLID
  5
B6
100
AcDbEntity
  8
check
  6
ByBlock
 62
    0
370
   -2
100
AcDbTrace
 10
-21
 20
-40
 30
0
 11
-18.5
 21
-39.58371534222716
 31
0
 12
-18.5
 22
-40.41628465777284
 32
0
 13
-18.5
 23
-40.41628465777284
 33
0
  0
MTEXT
  5
B7
100
AcDbEntity
  8
check
  6
CONTINUOUS
 62
    0
370
   -2
100
AcDbMText
 10
-1.099999999999999
 20
-38.125
 30
0
 40
2.5
 41
11.66666666666682
 71
    5
 72
    1
  1
39.8000
  7
standard
210
0
220
0
230
1
 50
360
 73
    2
 44
1
  0
LINE
  5
B8
100
AcDbEntity
  8
check
  6
ByBlock
 62
    0
370
   -2
100
AcDbLine
 10
18.8
 20
11.875
 11
18.8
 21
-41.25
  0
LINE
  5
B9
100
AcDbEntity
  8
check
  6
ByBlock
 62
    0
370
   -2
100
AcDbLine
 10
-21
 20
-0.625
 11
-21
 21
-41.25
  0
ENDBLK
  5
6E
330
6C
100
AcDbEntity
  8
0
100
AcDbBlockEnd
  0
BLOCK
  5
70
330
6F
100
AcDbEntity
  8
0
100
AcDbBlockBegin
  2
*D13
 70
    1
 10
0
 20
0
  3
*D13
  1

  0
LINE
  5
BA
100
AcDbEntity
  8
check
  6
ByBlock
 62
    0
370
   -2
100
AcDbLine
 10
40
 20
7.999485717243028
 11
40
 21
-4.177991286269388e-15
  0
SOLID
  5
BB
100
AcDbEntity
  8
check
  6
ByBlock
 62
    0
370
   -2
100
AcDbTrace
 10
40
 20
7.999485717243028
 30
0
 11
40.41628465777284
 21
5.499485717243028
 31
0
 12
39.58371534222716
 22
5.499485717243028
 32
0
 13
39.58371534222716
 23
5.499485717243028
 33
0
  0
SOLID
  5
BC
100
AcDbEntity
  8
check
  6
ByBlock
 62
    0
370
   -2
100
AcDbTrace
 10
40
 20
-4.177991286269388e-15
 30
0
 11
39.58371534222716
 21
2.499999999999996
 31
0
 12
40.41628465777284
 22
2.499999999999996
 32
0
 13
40.41628465777284
 23
2.499999999999996
 33
0
  0
MTEXT
  5
BD
100
AcDbEntity
  8
check
  6
CONTINUOUS
 62
    0
370
   -2
100
AcDbMText
 10
38.125
 20
13.48559682835422
 30
0
 40
2.5
 41
9.722222222222378
 71
    5
 72
    1
  1
7.9995
  7
standard
210
0
220
0
230
1
 50
90
 73
    2
 44
1
  0
LINE
  5
BE
100
AcDbEntity
  8
check
  6
ByBlock
 62
    0
370
   -2
100
AcDbLine
 10
-10.87508864822326
 20
7.99948571724303
 11
41.25
 21
7.999485717243028
  0
LINE
  5
BF
100
AcDbEntity
  8
check
  6
ByBlock
 62
    0
370
   -2
100
AcDbLine
 10
-18.175
 20
0
 11
41.25
 21
-4.177991286269388e-15
  0
ENDBLK
  5
71
330
6F
100
AcDbEntity
  8
0
100
AcDbBlockEnd
  0
BLOCK
  5
73
330
72
100
AcDbEntity
  8
0
100
AcDbBlockBegin
  2
*D1
 70
    1
 10
0
 20
0
  3
*D1
  1

  0
LINE
  5
C0
100
AcDbEntity
  8
check
  6
ByBlock
 62
    0
370
   -2
100
AcDbLine
 10
-21
 20
60
 11
21
 21
60
  0
SOLID
  5
C1
100
AcDbEntity
  8
check
  6
ByBlock
 62
    0
370
   -2
100
AcDbTrace
 10
-21
 20
60
 30
0
 11
-18.5
 21
60.41628465777284
 31
0
 12
-18.5
 22
59.58371534222716
 32
0
 13
-18.5
 23
59.58371534222716
 33
0
  0
SOLID
  5
C2
100
AcDbEntity
  8
check
  6
ByBlock
 62
    0
370
   -2
100
AcDbTrace
 10
21
 20
60
 30
0
 11
18.5
 21
59.58371534222716
 31
0
 12
18.5
 22
60.41628465777284
 32
0
 13
18.5
 23
60.41628465777284
 33
0
  0
MTEXT
  5
C3
100
AcDbEntity
  8
check
  6
CONTINUOUS
 62
    0
370
   -2
100
AcDbMText
 10
1.148106374200644e-16
 20
61.875
 30
0
 40
2.5
 41
11.94444444444445
 71
    5
 72
    1
  1
42.0000
  7
standard
210
0
220
0
230
1
 50
0
 73
    2
 44
1
  0
LINE
  5
C4
100
AcDbEntity
  8
check
  6
ByBlock
 62
    0
370
   -2
100
AcDbLine
 10
-21
 20
52.625
 11
-21
 21
61.25
  0
LINE
  5
C5
100
AcDbEntity
  8
check
  6
ByBlock
 62
    0
370
   -2
100
AcDbLine
 10
21
 20
52.625
 11
21
 21
61.25
  0
ENDBLK
  5
74
330
72
100
AcDbEntity
  8
0
100
AcDbBlockEnd
  0
BLOCK
  5
76
330
75
100
AcDbEntity
  8
0
100
AcDbBlockBegin
  2
*D11
 70
    1
 10
0
 20
0
  3
*D11
  1

  0
LINE
  5
C6
100
AcDbEntity
  8
check
  6
ByBlock
 62
    0
370
   -2
100
AcDbLine
 10
11.49999849474935
 20
-70
 11
-21
 21
-70
  0
SOLID
  5
C7
100
AcDbEntity
  8
check
  6
ByBlock
 62
    0
370
   -2
100
AcDbTrace
 10
11.49999849474935
 20
-70
 30
0
 11
8.999998494749345
 21
-70.41628465777283
 31
0
 12
8.999998494749345
 22
-69.58371534222717
 32
0
 13
8.999998494749345
 23
-69.58371534222717
 33
0
  0
SOLID
  5
C8
100
AcDbEntity
  8
check
  6
ByBlock
 62
    0
370
   -2
100
AcDbTrace
 10
-21
 20
-70
 30
0
 11
-18.5
 21
-69.58371534222717
 31
0
 12
-18.5
 22
-70.41628465777283
 32
0
 13
-18.5
 23
-70.41628465777283
 33
0
  0
MTEXT
  5
C9
100
AcDbEntity
  8
check
  6
CONTINUOUS
 62
    0
370
   -2
100
AcDbMText
 10
-4.750000752625327
 20
-68.125
 30
0
 40
2.5
 41
11.66666666666698
 71
    5
 72
    1
  1
32.5000
  7
standard
210
0
220
0
230
1
 50
360
 73
    2
 44
1
  0
LINE
  5
CA
100
AcDbEntity
  8
check
  6
ByBlock
 62
    0
370
   -2
100
AcDbLine
 10
11.49999849474934
 20
7.3749925
 11
11.49999849474935
 21
-71.25
  0
LINE
  5
CB
100
AcDbEntity
  8
check
  6
ByBlock
 62
    0
370
   -2
100
AcDbLine
 10
-21
 20
-0.625
 11
-21
 21
-71.25
  0
ENDBLK
  5
77
330
75
100
AcDbEntity
  8
0
100
AcDbBlockEnd
  0
BLOCK
  5
79
330
78
100
AcDbEntity
  8
0
100
AcDbBlockBegin
  2
*D4
 70
    1
 10
0
 20
0
  3
*D4
  1

  0
LINE
  5
CC
100
AcDbEntity
  8
check
  6
ByBlock
 62
    0
370
   -2
100
AcDbLine
 10
-50
 20
34.3
 11
-50
 21
2.060573933704291e-15
  0
SOLID
  5
CD
100
AcDbEntity
  8
check
  6
ByBlock
 62
    0
370
   -2
100
AcDbTrace
 10
-50
 20
34.3
 30
0
 11
-49.58371534222716
 21
31.8
 31
0
 12
-50.41628465777284
 22
31.8
 32
0
 13
-50.41628465777284
 23
31.8
 33
0
  0
SOLID
  5
CE
100
AcDbEntity
  8
check
  6
ByBlock
 62
    0
370
   -2
100
AcDbTrace
 10
-50
 20
2.060573933704291e-15
 30
0
 11
-50.41628465777284
 21
2.500000000000002
 31
0
 12
-49.58371534222716
 22
2.500000000000002
 32
0
 13
-49.58371534222716
 23
2.500000000000002
 33
0
  0
MTEXT
  5
CF
100
AcDbEntity
  8
check
  6
CONTINUOUS
 62
    0
370
   -2
100
AcDbMText
 10
-51.875
 20
17.15
 30
0
 40
2.5
 41
11.94444444444476
 71
    5
 72
    1
  1
34.3000
  7
standard
210
0
220
0
230
1
 50
90
 73
    2
 44
1
  0
LINE
  5
D0
100
AcDbEntity
  8
check
  6
ByBlock
 62
    0
370
   -2
100
AcDbLine
 10
-3.625
 20
34.3
 11
-51.25
 21
34.3
  0
LINE
  5
D1
100
AcDbEntity
  8
check
  6
ByBlock
 62
    0
370
   -2
100
AcDbLine
 10
-21.625
 20
7.654042494670958e-17
 11
-51.25
 21
2.21365478359771e-15
  0
ENDBLK
  5
7A
330
78
100
AcDbEntity
  8
0
100
AcDbBlockEnd
  0
BLOCK
  5
7C
330
7B
100
AcDbEntity
  8
0
100
AcDbBlockBegin
  2
*D10
 70
    1
 10
0
 20
0
  3
*D10
  1

  0
LINE
  5
D2
100
AcDbEntity
  8
check
  6
ByBlock
 62
    0
370
   -2
100
AcDbLine
 10
7.464779343990813e-06
 20
-60
 11
-21
 21
-60
  0
SOLID
  5
D3
100
AcDbEntity
  8
check
  6
ByBlock
 62
    0
370
   -2
100
AcDbTrace
 10
7.464779343990813e-06
 20
-60
 30
0
 11
-2.499992535220656
 21
-60.41628465777284
 31
0
 12
-2.499992535220656
 22
-59.58371534222716
 32
0
 13
-2.499992535220656
 23
-59.58371534222716
 33
0
  0
SOLID
  5
D4
100
AcDbEntity
  8
check
  6
ByBlock
 62
    0
370
   -2
100
AcDbTrace
 10
-21
 20
-60
 30
0
 11
-18.5
 21
-59.58371534222716
 31
0
 12
-18.5
 22
-60.41628465777284
 32
0
 13
-18.5
 23
-60.41628465777284
 33
0
  0
MTEXT
  5
D5
100
AcDbEntity
  8
check
  6
CONTINUOUS
 62
    0
370
   -2
100
AcDbMText
 10
-10.49999626761033
 20
-58.125
 30
0
 40
2.5
 41
11.11111111111111
 71
    5
 72
    1
  1
21.0000
  7
standard
210
0
220
0
230
1
 50
360
 73
    2
 44
1
  0
LINE
  5
D6
100
AcDbEntity
  8
check
  6
ByBlock
 62
    0
370
   -2
100
AcDbLine
 10
7.464779344875203e-06
 20
30.67497201863843
 11
7.464779343761191e-06
 21
-61.25
  0
LINE
  5
D7
100
AcDbEntity
  8
check
  6
ByBlock
 62
    0
370
   -2
100
AcDbLine
 10
-21
 20
-0.625
 11
-21
 21
-61.25
  0
ENDBLK
  5
7D
330
7B
100
AcDbEntity
  8
0
100
AcDbBlockEnd
  0
ENDSEC
  0
SECTION
  2
ENTITIES
  0
LINE
  5
D8
100
AcDbEntity
  8
0
  6
ByLayer
 62
  256
370
   -1
100
AcDbLine
 10
21
 20
52
 11
-21
 21
52
  0
LINE
  5
D9
100
AcDbEntity
  8
0
  6
ByLayer
 62
  256
370
   -1
100
AcDbLine
 10
-21
 20
52
 11
-21
 21
0
  0
LINE
  5
DA
100
AcDbEntity
  8
0
  6
ByLayer
 62
  256
370
   -1
100
AcDbLine
 10
-21
 20
0
 11
21
 21
0
  0
LINE
  5
DB
100
AcDbEntity
  8
0
  6
ByLayer
 62
  256
370
   -1
100
AcDbLine
 10
21
 20
0
 11
21
 21
52
  0
LINE
  5
DC
100
AcDbEntity
  8
0
  6
ByLayer
 62
  256
370
   -1
100
AcDbLine
 10
-18.8
 20
12.5
 11
-18.8
 21
50.1
  0
LINE
  5
DD
100
AcDbEntity
  8
0
  6
ByLayer
 62
  256
370
   -1
100
AcDbLine
 10
-18.8
 20
50.1
 11
18.8
 21
50.1
  0
LINE
  5
DE
100
AcDbEntity
  8
0
  6
ByLayer
 62
  256
370
   -1
100
AcDbLine
 10
18.8
 20
50.1
 11
18.8
 21
12.5
  0
LINE
  5
DF
100
AcDbEntity
  8
0
  6
ByLayer
 62
  256
370
   -1
100
AcDbLine
 10
18.8
 20
12.5
 11
3
 21
12.5
  0
LINE
  5
E0
100
AcDbEntity
  8
0
  6
ByLayer
 62
  256
370
   -1
100
AcDbLine
 10
3
 20
12.5
 11
3
 21
34.3
  0
LINE
  5
E1
100
AcDbEntity
  8
0
  6
ByLayer
 62
  256
370
   -1
100
AcDbLine
 10
3
 20
34.3
 11
-3
 21
34.3
  0
LINE
  5
E2
100
AcDbEntity
  8
0
  6
ByLayer
 62
  256
370
   -1
100
AcDbLine
 10
-3
 20
34.3
 11
-3
 21
12.5
  0
LINE
  5
E3
100
AcDbEntity
  8
0
  6
ByLayer
 62
  256
370
   -1
100
AcDbLine
 10
-3
 20
12.5
 11
-18.8
 21
12.5
  0
LINE
  5
E4
100
AcDbEntity
  8
0
  6
ByLayer
 62
  256
370
   -1
100
AcDbLine
 10
0
 20
29.8
 11
-0.0941772
 21
29.8029
  0
LINE
  5
E5
100
AcDbEntity
  8
0
  6
ByLayer
 62
  256
370
   -1
100
AcDbLine
 10
-0.0941772
 20
29.8029
 11
-0.187988
 21
29.8118
  0
LINE
  5
E6
100
AcDbEntity
  8
0
  6
ByLayer
 62
  256
370
   -1
100
AcDbLine
 10
-0.187988
 20
29.8118
 11
-0.281067
 21
29.8266
  0
LINE
  5
E7
100
AcDbEntity
  8
0
  6
ByLayer
 62
  256
370
   -1
100
AcDbLine
 10
-0.281067
 20
29.8266
 11
-0.373032
 21
29.8471
  0
LINE
  5
E8
100
AcDbEntity
  8
0
  6
ByLayer
 62
  256
370
   -1
100
AcDbLine
 10
-0.373032
 20
29.8471
 11
-0.463516
 21
29.8734
  0
LINE
  5
E9
100
AcDbEntity
  8
0
  6
ByLayer
 62
  256
370
   -1
100
AcDbLine
 10
-0.463516
 20
29.8734
 11
-0.552185
 21
29.9053
  0
LINE
  5
EA
100
AcDbEntity
  8
0
  6
ByLayer
 62
  256
370
   -1
100
AcDbLine
 10
-0.552185
 20
29.9053
 11
-0.638657
 21
29.9427
  0
LINE
  5
EB
100
AcDbEntity
  8
0
  6
ByLayer
 62
  256
370
   -1
100
AcDbLine
 10
-0.638657
 20
29.9427
 11
-0.722626
 21
29.9855
  0
LINE
  5
EC
100
AcDbEntity
  8
0
  6
ByLayer
 62
  256
370
   -1
100
AcDbLine
 10
-0.722626
 20
29.9855
 11
-0.8037260000000001
 21
30.0335
  0
LINE
  5
ED
100
AcDbEntity
  8
0
  6
ByLayer
 62
  256
370
   -1
100
AcDbLine
 10
-0.8037260000000001
 20
30.0335
 11
-0.881668
 21
30.0865
  0
LINE
  5
EE
100
AcDbEntity
  8
0
  6
ByLayer
 62
  256
370
   -1
100
AcDbLine
 10
-0.881668
 20
30.0865
 11
-0.956131
 21
30.1442
  0
LINE
  5
EF
100
AcDbEntity
  8
0
  6
ByLayer
 62
  256
370
   -1
100
AcDbLine
 10
-0.956131
 20
30.1442
 11
-1.02681
 21
30.2065
  0
LINE
  5
F0
100
AcDbEntity
  8
0
  6
ByLayer
 62
  256
370
   -1
100
AcDbLine
 10
-1.02681
 20
30.2065
 11
-1.09344
 21
30.2732
  0
LINE
  5
F1
100
AcDbEntity
  8
0
  6
ByLayer
 62
  256
370
   -1
100
AcDbLine
 10
-1.09344
 20
30.2732
 11
-1.15576
 21
30.3439
  0
LINE
  5
F2
100
AcDbEntity
  8
0
  6
ByLayer
 62
  256
370
   -1
100
AcDbLine
 10
-1.15576
 20
30.3439
 11
-1.21352
 21
30.4183
  0
LINE
  5
F3
100
AcDbEntity
  8
0
  6
ByLayer
 62
  256
370
   -1
100
AcDbLine
 10
-1.21352
 20
30.4183
 11
-1.26648
 21
30.4962
  0
LINE
  5
F4
100
AcDbEntity
  8
0
  6
ByLayer
 62
  256
370
   -1
100
AcDbLine
 10
-1.26648
 20
30.4962
 11
-1.31445
 21
30.5774
  0
LINE
  5
F5
100
AcDbEntity
  8
0
  6
ByLayer
 62
  256
370
   -1
100
AcDbLine
 10
-1.31445
 20
30.5774
 11
-1.35724
 21
30.6613
  0
LINE
  5
F6
100
AcDbEntity
  8
0
  6
ByLayer
 62
  256
370
   -1
100
AcDbLine
 10
-1.35724
 20
30.6613
 11
-1.39465
 21
30.7478
  0
LINE
  5
F7
100
AcDbEntity
  8
0
  6
ByLayer
 62
  256
370
   -1
100
AcDbLine
 10
-1.39465
 20
30.7478
 11
-1.42657
 21
30.8365
  0
LINE
  5
F8
100
AcDbEntity
  8
0
  6
ByLayer
 62
  256
370
   -1
100
AcDbLine
 10
-1.42657
 20
30.8365
 11
-1.45287
 21
30.927
  0
LINE
  5
F9
100
AcDbEntity
  8
0
  6
ByLayer
 62
  256
370
   -1
100
AcDbLine
 10
-1.45287
 20
30.927
 11
-1.47342
 21
31.0189
  0
LINE
  5
FA
100
AcDbEntity
  8
0
  6
ByLayer
 62
  256
370
   -1
100
AcDbLine
 10
-1.47342
 20
31.0189
 11
-1.48816
 21
31.112
  0
LINE
  5
FB
100
AcDbEntity
  8
0
  6
ByLayer
 62
  256
370
   -1
100
AcDbLine
 10
-1.48816
 20
31.112
 11
-1.49704
 21
31.2058
  0
LINE
  5
FC
100
AcDbEntity
  8
0
  6
ByLayer
 62
  256
370
   -1
100
AcDbLine
 10
-1.49704
 20
31.2058
 11
-1.5
 21
31.3
  0
LINE
  5
FD
100
AcDbEntity
  8
0
  6
ByLayer
 62
  256
370
   -1
100
AcDbLine
 10
-1.5
 20
31.3
 11
-1.49704
 21
31.3942
  0
LINE
  5
FE
100
AcDbEntity
  8
0
  6
ByLayer
 62
  256
370
   -1
100
AcDbLine
 10
-1.49704
 20
31.3942
 11
-1.48816
 21
31.488
  0
LINE
  5
FF
100
AcDbEntity
  8
0
  6
ByLayer
 62
  256
370
   -1
100
AcDbLine
 10
-1.48816
 20
31.488
 11
-1.47342
 21
31.5811
  0
LINE
  5
100
100
AcDbEntity
  8
0
  6
ByLayer
 62
  256
370
   -1
100
AcDbLine
 10
-1.47342
 20
31.5811
 11
-1.45287
 21
31.673
  0
LINE
  5
101
100
AcDbEntity
  8
0
  6
ByLayer
 62
  256
370
   -1
100
AcDbLine
 10
-1.45287
 20
31.673
 11
-1.42657
 21
31.7635
  0
LINE
  5
102
100
AcDbEntity
  8
0
  6
ByLayer
 62
  256
370
   -1
100
AcDbLine
 10
-1.42657
 20
31.7635
 11
-1.39465
 21
31.8522
  0
LINE
  5
103
100
AcDbEntity
  8
0
  6
ByLayer
 62
  256
370
   -1
100
AcDbLine
 10
-1.39465
 20
31.8522
 11
-1.35724
 21
31.9387
  0
LINE
  5
104
100
AcDbEntity
  8
0
  6
ByLayer
 62
  256
370
   -1
100
AcDbLine
 10
-1.35724
 20
31.9387
 11
-1.31445
 21
32.0226
  0
LINE
  5
105
100
AcDbEntity
  8
0
  6
ByLayer
 62
  256
370
   -1
100
AcDbLine
 10
-1.31445
 20
32.0226
 11
-1.26648
 21
32.1037
  0
LINE
  5
106
100
AcDbEntity
  8
0
  6
ByLayer
 62
  256
370
   -1
100
AcDbLine
 10
-1.26648
 20
32.1037
 11
-1.21352
 21
32.1817
  0
LINE
  5
107
100
AcDbEntity
  8
0
  6
ByLayer
 62
  256
370
   -1
100
AcDbLine
 10
-1.21352
 20
32.1817
 11
-1.15576
 21
32.2561
  0
LINE
  5
108
100
AcDbEntity
  8
0
  6
ByLayer
 62
  256
370
   -1
100
AcDbLine
 10
-1.15576
 20
32.2561
 11
-1.09344
 21
32.3268
  0
LINE
  5
109
100
AcDbEntity
  8
0
  6
ByLayer
 62
  256
370
   -1
100
AcDbLine
 10
-1.09344
 20
32.3268
 11
-1.02681
 21
32.3934
  0
LINE
  5
10A
100
AcDbEntity
  8
0
  6
ByLayer
 62
  256
370
   -1
100
AcDbLine
 10
-1.02681
 20
32.3934
 11
-0.956131
 21
32.4558
  0
LINE
  5
10B
100
AcDbEntity
  8
0
  6
ByLayer
 62
  256
370
   -1
100
AcDbLine
 10
-0.956131
 20
32.4558
 11
-0.881668
 21
32.5135
  0
LINE
  5
10C
100
AcDbEntity
  8
0
  6
ByLayer
 62
  256
370
   -1
100
AcDbLine
 10
-0.881668
 20
32.5135
 11
-0.8037260000000001
 21
32.5665
  0
LINE
  5
10D
100
AcDbEntity
  8
0
  6
ByLayer
 62
  256
370
   -1
100
AcDbLine
 10
-0.8037260000000001
 20
32.5665
 11
-0.722626
 21
32.6145
  0
LINE
  5
10E
100
AcDbEntity
  8
0
  6
ByLayer
 62
  256
370
   -1
100
AcDbLine
 10
-0.722626
 20
32.6145
 11
-0.638657
 21
32.6572
  0
LINE
  5
10F
100
AcDbEntity
  8
0
  6
ByLayer
 62
  256
370
   -1
100
AcDbLine
 10
-0.638657
 20
32.6572
 11
-0.552185
 21
32.6947
  0
LINE
  5
110
100
AcDbEntity
  8
0
  6
ByLayer
 62
  256
370
   -1
100
AcDbLine
 10
-0.552185
 20
32.6947
 11
-0.463516
 21
32.7266
  0
LINE
  5
111
100
AcDbEntity
  8
0
  6
ByLayer
 62
  256
370
   -1
100
AcDbLine
 10
-0.463516
 20
32.7266
 11
-0.373032
 21
32.7529
  0
LINE
  5
112
100
AcDbEntity
  8
0
  6
ByLayer
 62
  256
370
   -1
100
AcDbLine
 10
-0.373032
 20
32.7529
 11
-0.281067
 21
32.7734
  0
LINE
  5
113
100
AcDbEntity
  8
0
  6
ByLayer
 62
  256
370
   -1
100
AcDbLine
 10
-0.281067
 20
32.7734
 11
-0.187988
 21
32.7882
  0
LINE
  5
114
100
AcDbEntity
  8
0
  6
ByLayer
 62
  256
370
   -1
100
AcDbLine
 10
-0.187988
 20
32.7882
 11
-0.0941772
 21
32.797
  0
LINE
  5
115
100
AcDbEntity
  8
0
  6
ByLayer
 62
  256
370
   -1
100
AcDbLine
 10
-0.0941772
 20
32.797
 11
0
 21
32.8
  0
LINE
  5
116
100
AcDbEntity
  8
0
  6
ByLayer
 62
  256
370
   -1
100
AcDbLine
 10
0
 20
32.8
 11
0.0941772
 21
32.797
  0
LINE
  5
117
100
AcDbEntity
  8
0
  6
ByLayer
 62
  256
370
   -1
100
AcDbLine
 10
0.0941772
 20
32.797
 11
0.187988
 21
32.7882
  0
LINE
  5
118
100
AcDbEntity
  8
0
  6
ByLayer
 62
  256
370
   -1
100
AcDbLine
 10
0.187988
 20
32.7882
 11
0.281067
 21
32.7734
  0
LINE
  5
119
100
AcDbEntity
  8
0
  6
ByLayer
 62
  256
370
   -1
100
AcDbLine
 10
0.281067
 20
32.7734
 11
0.373032
 21
32.7529
  0
LINE
  5
11A
100
AcDbEntity
  8
0
  6
ByLayer
 62
  256
370
   -1
100
AcDbLine
 10
0.373032
 20
32.7529
 11
0.463516
 21
32.7266
  0
LINE
  5
11B
100
AcDbEntity
  8
0
  6
ByLayer
 62
  256
370
   -1
100
AcDbLine
 10
0.463516
 20
32.7266
 11
0.552185
 21
32.6947
  0
LINE
  5
11C
100
AcDbEntity
  8
0
  6
ByLayer
 62
  256
370
   -1
100
AcDbLine
 10
0.552185
 20
32.6947
 11
0.638657
 21
32.6572
  0
LINE
  5
11D
100
AcDbEntity
  8
0
  6
ByLayer
 62
  256
370
   -1
100
AcDbLine
 10
0.638657
 20
32.6572
 11
0.722626
 21
32.6145
  0
LINE
  5
11E
100
AcDbEntity
  8
0
  6
ByLayer
 62
  256
370
   -1
100
AcDbLine
 10
0.722626
 20
32.6145
 11
0.8037260000000001
 21
32.5665
  0
LINE
  5
11F
100
AcDbEntity
  8
0
  6
ByLayer
 62
  256
370
   -1
100
AcDbLine
 10
0.8037260000000001
 20
32.5665
 11
0.881668
 21
32.5135
  0
LINE
  5
120
100
AcDbEntity
  8
0
  6
ByLayer
 62
  256
370
   -1
100
AcDbLine
 10
0.881668
 20
32.5135
 11
0.956131
 21
32.4558
  0
LINE
  5
121
100
AcDbEntity
  8
0
  6
ByLayer
 62
  256
370
   -1
100
AcDbLine
 10
0.956131
 20
32.4558
 11
1.02681
 21
32.3934
  0
LINE
  5
122
100
AcDbEntity
  8
0
  6
ByLayer
 62
  256
370
   -1
100
AcDbLine
 10
1.02681
 20
32.3934
 11
1.09344
 21
32.3268
  0
LINE
  5
123
100
AcDbEntity
  8
0
  6
ByLayer
 62
  256
370
   -1
100
AcDbLine
 10
1.09344
 20
32.3268
 11
1.15576
 21
32.2561
  0
LINE
  5
124
100
AcDbEntity
  8
0
  6
ByLayer
 62
  256
370
   -1
100
AcDbLine
 10
1.15576
 20
32.2561
 11
1.21352
 21
32.1817
  0
LINE
  5
125
100
AcDbEntity
  8
0
  6
ByLayer
 62
  256
370
   -1
100
AcDbLine
 10
1.21352
 20
32.1817
 11
1.26648
 21
32.1037
  0
LINE
  5
126
100
AcDbEntity
  8
0
  6
ByLayer
 62
  256
370
   -1
100
AcDbLine
 10
1.26648
 20
32.1037
 11
1.31445
 21
32.0226
  0
LINE
  5
127
100
AcDbEntity
  8
0
  6
ByLayer
 62
  256
370
   -1
100
AcDbLine
 10
1.31445
 20
32.0226
 11
1.35724
 21
31.9387
  0
LINE
  5
128
100
AcDbEntity
  8
0
  6
ByLayer
 62
  256
370
   -1
100
AcDbLine
 10
1.35724
 20
31.9387
 11
1.39465
 21
31.8522
  0
LINE
  5
129
100
AcDbEntity
  8
0
  6
ByLayer
 62
  256
370
   -1
100
AcDbLine
 10
1.39465
 20
31.8522
 11
1.42657
 21
31.7635
  0
LINE
  5
12A
100
AcDbEntity
  8
0
  6
ByLayer
 62
  256
370
   -1
100
AcDbLine
 10
1.42657
 20
31.7635
 11
1.45287
 21
31.673
  0
LINE
  5
12B
100
AcDbEntity
  8
0
  6
ByLayer
 62
  256
370
   -1
100
AcDbLine
 10
1.45287
 20
31.673
 11
1.47342
 21
31.5811
  0
LINE
  5
12C
100
AcDbEntity
  8
0
  6
ByLayer
 62
  256
370
   -1
100
AcDbLine
 10
1.47342
 20
31.5811
 11
1.48816
 21
31.488
  0
LINE
  5
12D
100
AcDbEntity
  8
0
  6
ByLayer
 62
  256
370
   -1
100
AcDbLine
 10
1.48816
 20
31.488
 11
1.49704
 21
31.3942
  0
LINE
  5
12E
100
AcDbEntity
  8
0
  6
ByLayer
 62
  256
370
   -1
100
AcDbLine
 10
1.49704
 20
31.3942
 11
1.5
 21
31.3
  0
LINE
  5
12F
100
AcDbEntity
  8
0
  6
ByLayer
 62
  256
370
   -1
100
AcDbLine
 10
1.5
 20
31.3
 11
1.49704
 21
31.2058
  0
LINE
  5
130
100
AcDbEntity
  8
0
  6
ByLayer
 62
  256
370
   -1
100
AcDbLine
 10
1.49704
 20
31.2058
 11
1.48816
 21
31.112
  0
LINE
  5
131
100
AcDbEntity
  8
0
  6
ByLayer
 62
  256
370
   -1
100
AcDbLine
 10
1.48816
 20
31.112
 11
1.47342
 21
31.0189
  0
LINE
  5
132
100
AcDbEntity
  8
0
  6
ByLayer
 62
  256
370
   -1
100
AcDbLine
 10
1.47342
 20
31.0189
 11
1.45287
 21
30.927
  0
LINE
  5
133
100
AcDbEntity
  8
0
  6
ByLayer
 62
  256
370
   -1
100
AcDbLine
 10
1.45287
 20
30.927
 11
1.42657
 21
30.8365
  0
LINE
  5
134
100
AcDbEntity
  8
0
  6
ByLayer
 62
  256
370
   -1
100
AcDbLine
 10
1.42657
 20
30.8365
 11
1.39465
 21
30.7478
  0
LINE
  5
135
100
AcDbEntity
  8
0
  6
ByLayer
 62
  256
370
   -1
100
AcDbLine
 10
1.39465
 20
30.7478
 11
1.35724
 21
30.6613
  0
LINE
  5
136
100
AcDbEntity
  8
0
  6
ByLayer
 62
  256
370
   -1
100
AcDbLine
 10
1.35724
 20
30.6613
 11
1.31445
 21
30.5774
  0
LINE
  5
137
100
AcDbEntity
  8
0
  6
ByLayer
 62
  256
370
   -1
100
AcDbLine
 10
1.31445
 20
30.5774
 11
1.26648
 21
30.4962
  0
LINE
  5
138
100
AcDbEntity
  8
0
  6
ByLayer
 62
  256
370
   -1
100
AcDbLine
 10
1.26648
 20
30.4962
 11
1.21352
 21
30.4183
  0
LINE
  5
139
100
AcDbEntity
  8
0
  6
ByLayer
 62
  256
370
   -1
100
AcDbLine
 10
1.21352
 20
30.4183
 11
1.15576
 21
30.3439
  0
LINE
  5
13A
100
AcDbEntity
  8
0
  6
ByLayer
 62
  256
370
   -1
100
AcDbLine
 10
1.15576
 20
30.3439
 11
1.09344
 21
30.2732
  0
LINE
  5
13B
100
AcDbEntity
  8
0
  6
ByLayer
 62
  256
370
   -1
100
AcDbLine
 10
1.09344
 20
30.2732
 11
1.02681
 21
30.2065
  0
LINE
  5
13C
100
AcDbEntity
  8
0
  6
ByLayer
 62
  256
370
   -1
100
AcDbLine
 10
1.02681
 20
30.2065
 11
0.956131
 21
30.1442
  0
LINE
  5
13D
100
AcDbEntity
  8
0
  6
ByLayer
 62
  256
370
   -1
100
AcDbLine
 10
0.956131
 20
30.1442
 11
0.881668
 21
30.0865
  0
LINE
  5
13E
100
AcDbEntity
  8
0
  6
ByLayer
 62
  256
370
   -1
100
AcDbLine
 10
0.881668
 20
30.0865
 11
0.8037260000000001
 21
30.0335
  0
LINE
  5
13F
100
AcDbEntity
  8
0
  6
ByLayer
 62
  256
370
   -1
100
AcDbLine
 10
0.8037260000000001
 20
30.0335
 11
0.722626
 21
29.9855
  0
LINE
  5
140
100
AcDbEntity
  8
0
  6
ByLayer
 62
  256
370
   -1
100
AcDbLine
 10
0.722626
 20
29.9855
 11
0.638657
 21
29.9427
  0
LINE
  5
141
100
AcDbEntity
  8
0
  6
ByLayer
 62
  256
370
   -1
100
AcDbLine
 10
0.638657
 20
29.9427
 11
0.552185
 21
29.9053
  0
LINE
  5
142
100
AcDbEntity
  8
0
  6
ByLayer
 62
  256
370
   -1
100
AcDbLine
 10
0.552185
 20
29.9053
 11
0.463516
 21
29.8734
  0
LINE
  5
143
100
AcDbEntity
  8
0
  6
ByLayer
 62
  256
370
   -1
100
AcDbLine
 10
0.463516
 20
29.8734
 11
0.373032
 21
29.8471
  0
LINE
  5
144
100
AcDbEntity
  8
0
  6
ByLayer
 62
  256
370
   -1
100
AcDbLine
 10
0.373032
 20
29.8471
 11
0.281067
 21
29.8266
  0
LINE
  5
145
100
AcDbEntity
  8
0
  6
ByLayer
 62
  256
370
   -1
100
AcDbLine
 10
0.281067
 20
29.8266
 11
0.187988
 21
29.8118
  0
LINE
  5
146
100
AcDbEntity
  8
0
  6
ByLayer
 62
  256
370
   -1
100
AcDbLine
 10
0.187988
 20
29.8118
 11
0.0941772
 21
29.8029
  0
LINE
  5
147
100
AcDbEntity
  8
0
  6
ByLayer
 62
  256
370
   -1
100
AcDbLine
 10
0.0941772
 20
29.8029
 11
0
 21
29.8
  0
LINE
  5
148
100
AcDbEntity
  8
0
  6
ByLayer
 62
  256
370
   -1
100
AcDbLine
 10
-11.5
 20
6.5
 11
-11.5942
 21
6.50294
  0
LINE
  5
149
100
AcDbEntity
  8
0
  6
ByLayer
 62
  256
370
   -1
100
AcDbLine
 10
-11.5942
 20
6.50294
 11
-11.688
 21
6.51183
  0
LINE
  5
14A
100
AcDbEntity
  8
0
  6
ByLayer
 62
  256
370
   -1
100
AcDbLine
 10
-11.688
 20
6.51183
 11
-11.7811
 21
6.52657
  0
LINE
  5
14B
100
AcDbEntity
  8
0
  6
ByLayer
 62
  256
370
   -1
100
AcDbLine
 10
-11.7811
 20
6.52657
 11
-11.873
 21
6.54712
  0
LINE
  5
14C
100
AcDbEntity
  8
0
  6
ByLayer
 62
  256
370
   -1
100
AcDbLine
 10
-11.873
 20
6.54712
 11
-11.9635
 21
6.57341
  0
LINE
  5
14D
100
AcDbEntity
  8
0
  6
ByLayer
 62
  256
370
   -1
100
AcDbLine
 10
-11.9635
 20
6.57341
 11
-12.0522
 21
6.60533
  0
LINE
  5
14E
100
AcDbEntity
  8
0
  6
ByLayer
 62
  256
370
   -1
100
AcDbLine
 10
-12.0522
 20
6.60533
 11
-12.1387
 21
6.64275
  0
LINE
  5
14F
100
AcDbEntity
  8
0
  6
ByLayer
 62
  256
370
   -1
100
AcDbLine
 10
-12.1387
 20
6.64275
 11
-12.2226
 21
6.68553
  0
LINE
  5
150
100
AcDbEntity
  8
0
  6
ByLayer
 62
  256
370
   -1
100
AcDbLine
 10
-12.2226
 20
6.68553
 11
-12.3037
 21
6.73351
  0
LINE
  5
151
100
AcDbEntity
  8
0
  6
ByLayer
 62
  256
370
   -1
100
AcDbLine
 10
-12.3037
 20
6.73351
 11
-12.3817
 21
6.78647
  0
LINE
  5
152
100
AcDbEntity
  8
0
  6
ByLayer
 62
  256
370
   -1
100
AcDbLine
 10
-12.3817
 20
6.78647
 11
-12.4561
 21
6.84422
  0
LINE
  5
153
100
AcDbEntity
  8
0
  6
ByLayer
 62
  256
370
   -1
100
AcDbLine
 10
-12.4561
 20
6.84422
 11
-12.5268
 21
6.90654
  0
LINE
  5
154
100
AcDbEntity
  8
0
  6
ByLayer
 62
  256
370
   -1
100
AcDbLine
 10
-12.5268
 20
6.90654
 11
-12.5934
 21
6.97318
  0
LINE
  5
155
100
AcDbEntity
  8
0
  6
ByLayer
 62
  256
370
   -1
100
AcDbLine
 10
-12.5934
 20
6.97318
 11
-12.6558
 21
7.04385
  0
LINE
  5
156
100
AcDbEntity
  8
0
  6
ByLayer
 62
  256
370
   -1
100
AcDbLine
 10
-12.6558
 20
7.04385
 11
-12.7135
 21
7.11832
  0
LINE
  5
157
100
AcDbEntity
  8
0
  6
ByLayer
 62
  256
370
   -1
100
AcDbLine
 10
-12.7135
 20
7.11832
 11
-12.7665
 21
7.19626
  0
LINE
  5
158
100
AcDbEntity
  8
0
  6
ByLayer
 62
  256
370
   -1
100
AcDbLine
 10
-12.7665
 20
7.19626
 11
-12.8145
 21
7.27736
  0
LINE
  5
159
100
AcDbEntity
  8
0
  6
ByLayer
 62
  256
370
   -1
100
AcDbLine
 10
-12.8145
 20
7.27736
 11
-12.8572
 21
7.36133
  0
LINE
  5
15A
100
AcDbEntity
  8
0
  6
ByLayer
 62
  256
370
   -1
100
AcDbLine
 10
-12.8572
 20
7.36133
 11
-12.8947
 21
7.4478
  0
LINE
  5
15B
100
AcDbEntity
  8
0
  6
ByLayer
 62
  256
370
   -1
100
AcDbLine
 10
-12.8947
 20
7.4478
 11
-12.9266
 21
7.53647
  0
LINE
  5
15C
100
AcDbEntity
  8
0
  6
ByLayer
 62
  256
370
   -1
100
AcDbLine
 10
-12.9266
 20
7.53647
 11
-12.9529
 21
7.62695
  0
LINE
  5
15D
100
AcDbEntity
  8
0
  6
ByLayer
 62
  256
370
   -1
100
AcDbLine
 10
-12.9529
 20
7.62695
 11
-12.9734
 21
7.71892
  0
LINE
  5
15E
100
AcDbEntity
  8
0
  6
ByLayer
 62
  256
370
   -1
100
AcDbLine
 10
-12.9734
 20
7.71892
 11
-12.9882
 21
7.812
  0
LINE
  5
15F
100
AcDbEntity
  8
0
  6
ByLayer
 62
  256
370
   -1
100
AcDbLine
 10
-12.9882
 20
7.812
 11
-12.997
 21
7.90581
  0
LINE
  5
160
100
AcDbEntity
  8
0
  6
ByLayer
 62
  256
370
   -1
100
AcDbLine
 10
-12.997
 20
7.90581
 11
-13
 21
8
  0
LINE
  5
161
100
AcDbEntity
  8
0
  6
ByLayer
 62
  256
370
   -1
100
AcDbLine
 10
-13
 20
8
 11
-12.997
 21
8.09418
  0
LINE
  5
162
100
AcDbEntity
  8
0
  6
ByLayer
 62
  256
370
   -1
100
AcDbLine
 10
-12.997
 20
8.09418
 11
-12.9882
 21
8.187989999999999
  0
LINE
  5
163
100
AcDbEntity
  8
0
  6
ByLayer
 62
  256
370
   -1
100
AcDbLine
 10
-12.9882
 20
8.187989999999999
 11
-12.9734
 21
8.28107
  0
LINE
  5
164
100
AcDbEntity
  8
0
  6
ByLayer
 62
  256
370
   -1
100
AcDbLine
 10
-12.9734
 20
8.28107
 11
-12.9529
 21
8.37303
  0
LINE
  5
165
100
AcDbEntity
  8
0
  6
ByLayer
 62
  256
370
   -1
100
AcDbLine
 10
-12.9529
 20
8.37303
 11
-12.9266
 21
8.463520000000001
  0
LINE
  5
166
100
AcDbEntity
  8
0
  6
ByLayer
 62
  256
370
   -1
100
AcDbLine
 10
-12.9266
 20
8.463520000000001
 11
-12.8947
 21
8.55219
  0
LINE
  5
167
100
AcDbEntity
  8
0
  6
ByLayer
 62
  256
370
   -1
100
AcDbLine
 10
-12.8947
 20
8.55219
 11
-12.8572
 21
8.63866
  0
LINE
  5
168
100
AcDbEntity
  8
0
  6
ByLayer
 62
  256
370
   -1
100
AcDbLine
 10
-12.8572
 20
8.63866
 11
-12.8145
 21
8.722630000000001
  0
LINE
  5
169
100
AcDbEntity
  8
0
  6
ByLayer
 62
  256
370
   -1
100
AcDbLine
 10
-12.8145
 20
8.722630000000001
 11
-12.7665
 21
8.80373
  0
LINE
  5
16A
100
AcDbEntity
  8
0
  6
ByLayer
 62
  256
370
   -1
100
AcDbLine
 10
-12.7665
 20
8.80373
 11
-12.7135
 21
8.88167
  0
LINE
  5
16B
100
AcDbEntity
  8
0
  6
ByLayer
 62
  256
370
   -1
100
AcDbLine
 10
-12.7135
 20
8.88167
 11
-12.6558
 21
8.95613
  0
LINE
  5
16C
100
AcDbEntity
  8
0
  6
ByLayer
 62
  256
370
   -1
100
AcDbLine
 10
-12.6558
 20
8.95613
 11
-12.5934
 21
9.026809999999999
  0
LINE
  5
16D
100
AcDbEntity
  8
0
  6
ByLayer
 62
  256
370
   -1
100
AcDbLine
 10
-12.5934
 20
9.026809999999999
 11
-12.5268
 21
9.093439999999999
  0
LINE
  5
16E
100
AcDbEntity
  8
0
  6
ByLayer
 62
  256
370
   -1
100
AcDbLine
 10
-12.5268
 20
9.093439999999999
 11
-12.4561
 21
9.155760000000001
  0
LINE
  5
16F
100
AcDbEntity
  8
0
  6
ByLayer
 62
  256
370
   -1
100
AcDbLine
 10
-12.4561
 20
9.155760000000001
 11
-12.3817
 21
9.213520000000001
  0
LINE
  5
170
100
AcDbEntity
  8
0
  6
ByLayer
 62
  256
370
   -1
100
AcDbLine
 10
-12.3817
 20
9.213520000000001
 11
-12.3037
 21
9.26648
  0
LINE
  5
171
100
AcDbEntity
  8
0
  6
ByLayer
 62
  256
370
   -1
100
AcDbLine
 10
-12.3037
 20
9.26648
 11
-12.2226
 21
9.314450000000001
  0
LINE
  5
172
100
AcDbEntity
  8
0
  6
ByLayer
 62
  256
370
   -1
100
AcDbLine
 10
-12.2226
 20
9.314450000000001
 11
-12.1387
 21
9.357239999999999
  0
LINE
  5
173
100
AcDbEntity
  8
0
  6
ByLayer
 62
  256
370
   -1
100
AcDbLine
 10
-12.1387
 20
9.357239999999999
 11
-12.0522
 21
9.39465
  0
LINE
  5
174
100
AcDbEntity
  8
0
  6
ByLayer
 62
  256
370
   -1
100
AcDbLine
 10
-12.0522
 20
9.39465
 11
-11.9635
 21
9.42657
  0
LINE
  5
175
100
AcDbEntity
  8
0
  6
ByLayer
 62
  256
370
   -1
100
AcDbLine
 10
-11.9635
 20
9.42657
 11
-11.873
 21
9.452870000000001
  0
LINE
  5
176
100
AcDbEntity
  8
0
  6
ByLayer
 62
  256
370
   -1
100
AcDbLine
 10
-11.873
 20
9.452870000000001
 11
-11.7811
 21
9.473420000000001
  0
LINE
  5
177
100
AcDbEntity
  8
0
  6
ByLayer
 62
  256
370
   -1
100
AcDbLine
 10
-11.7811
 20
9.473420000000001
 11
-11.688
 21
9.488160000000001
  0
LINE
  5
178
100
AcDbEntity
  8
0
  6
ByLayer
 62
  256
370
   -1
100
AcDbLine
 10
-11.688
 20
9.488160000000001
 11
-11.5942
 21
9.49704
  0
LINE
  5
179
100
AcDbEntity
  8
0
  6
ByLayer
 62
  256
370
   -1
100
AcDbLine
 10
-11.5942
 20
9.49704
 11
-11.5
 21
9.5
  0
LINE
  5
17A
100
AcDbEntity
  8
0
  6
ByLayer
 62
  256
370
   -1
100
AcDbLine
 10
-11.5
 20
9.5
 11
-11.4058
 21
9.49704
  0
LINE
  5
17B
100
AcDbEntity
  8
0
  6
ByLayer
 62
  256
370
   -1
100
AcDbLine
 10
-11.4058
 20
9.49704
 11
-11.312
 21
9.488160000000001
  0
LINE
  5
17C
100
AcDbEntity
  8
0
  6
ByLayer
 62
  256
370
   -1
100
AcDbLine
 10
-11.312
 20
9.488160000000001
 11
-11.2189
 21
9.473420000000001
  0
LINE
  5
17D
100
AcDbEntity
  8
0
  6
ByLayer
 62
  256
370
   -1
100
AcDbLine
 10
-11.2189
 20
9.473420000000001
 11
-11.127
 21
9.452870000000001
  0
LINE
  5
17E
100
AcDbEntity
  8
0
  6
ByLayer
 62
  256
370
   -1
100
AcDbLine
 10
-11.127
 20
9.452870000000001
 11
-11.0365
 21
9.42657
  0
LINE
  5
17F
100
AcDbEntity
  8
0
  6
ByLayer
 62
  256
370
   -1
100
AcDbLine
 10
-11.0365
 20
9.42657
 11
-10.9478
 21
9.39465
  0
LINE
  5
180
100
AcDbEntity
  8
0
  6
ByLayer
 62
  256
370
   -1
100
AcDbLine
 10
-10.9478
 20
9.39465
 11
-10.8613
 21
9.357239999999999
  0
LINE
  5
181
100
AcDbEntity
  8
0
  6
ByLayer
 62
  256
370
   -1
100
AcDbLine
 10
-10.8613
 20
9.357239999999999
 11
-10.7774
 21
9.314450000000001
  0
LINE
  5
182
100
AcDbEntity
  8
0
  6
ByLayer
 62
  256
370
   -1
100
AcDbLine
 10
-10.7774
 20
9.314450000000001
 11
-10.6963
 21
9.26648
  0
LINE
  5
183
100
AcDbEntity
  8
0
  6
ByLayer
 62
  256
370
   -1
100
AcDbLine
 10
-10.6963
 20
9.26648
 11
-10.6183
 21
9.213520000000001
  0
LINE
  5
184
100
AcDbEntity
  8
0
  6
ByLayer
 62
  256
370
   -1
100
AcDbLine
 10
-10.6183
 20
9.213520000000001
 11
-10.5439
 21
9.155760000000001
  0
LINE
  5
185
100
AcDbEntity
  8
0
  6
ByLayer
 62
  256
370
   -1
100
AcDbLine
 10
-10.5439
 20
9.155760000000001
 11
-10.4732
 21
9.093439999999999
  0
LINE
  5
186
100
AcDbEntity
  8
0
  6
ByLayer
 62
  256
370
   -1
100
AcDbLine
 10
-10.4732
 20
9.093439999999999
 11
-10.4065
 21
9.026809999999999
  0
LINE
  5
187
100
AcDbEntity
  8
0
  6
ByLayer
 62
  256
370
   -1
100
AcDbLine
 10
-10.4065
 20
9.026809999999999
 11
-10.3442
 21
8.95613
  0
LINE
  5
188
100
AcDbEntity
  8
0
  6
ByLayer
 62
  256
370
   -1
100
AcDbLine
 10
-10.3442
 20
8.95613
 11
-10.2865
 21
8.88167
  0
LINE
  5
189
100
AcDbEntity
  8
0
  6
ByLayer
 62
  256
370
   -1
100
AcDbLine
 10
-10.2865
 20
8.88167
 11
-10.2335
 21
8.80373
  0
LINE
  5
18A
100
AcDbEntity
  8
0
  6
ByLayer
 62
  256
370
   -1
100
AcDbLine
 10
-10.2335
 20
8.80373
 11
-10.1855
 21
8.722630000000001
  0
LINE
  5
18B
100
AcDbEntity
  8
0
  6
ByLayer
 62
  256
370
   -1
100
AcDbLine
 10
-10.1855
 20
8.722630000000001
 11
-10.1427
 21
8.63866
  0
LINE
  5
18C
100
AcDbEntity
  8
0
  6
ByLayer
 62
  256
370
   -1
100
AcDbLine
 10
-10.1427
 20
8.63866
 11
-10.1053
 21
8.55219
  0
LINE
  5
18D
100
AcDbEntity
  8
0
  6
ByLayer
 62
  256
370
   -1
100
AcDbLine
 10
-10.1053
 20
8.55219
 11
-10.0734
 21
8.463520000000001
  0
LINE
  5
18E
100
AcDbEntity
  8
0
  6
ByLayer
 62
  256
370
   -1
100
AcDbLine
 10
-10.0734
 20
8.463520000000001
 11
-10.0471
 21
8.37303
  0
LINE
  5
18F
100
AcDbEntity
  8
0
  6
ByLayer
 62
  256
370
   -1
100
AcDbLine
 10
-10.0471
 20
8.37303
 11
-10.0266
 21
8.28107
  0
LINE
  5
190
100
AcDbEntity
  8
0
  6
ByLayer
 62
  256
370
   -1
100
AcDbLine
 10
-10.0266
 20
8.28107
 11
-10.0118
 21
8.187989999999999
  0
LINE
  5
191
100
AcDbEntity
  8
0
  6
ByLayer
 62
  256
370
   -1
100
AcDbLine
 10
-10.0118
 20
8.187989999999999
 11
-10.0029
 21
8.09418
  0
LINE
  5
192
100
AcDbEntity
  8
0
  6
ByLayer
 62
  256
370
   -1
100
AcDbLine
 10
-10.0029
 20
8.09418
 11
-10
 21
8
  0
LINE
  5
193
100
AcDbEntity
  8
0
  6
ByLayer
 62
  256
370
   -1
100
AcDbLine
 10
-10
 20
8
 11
-10.0029
 21
7.90581
  0
LINE
  5
194
100
AcDbEntity
  8
0
  6
ByLayer
 62
  256
370
   -1
100
AcDbLine
 10
-10.0029
 20
7.90581
 11
-10.0118
 21
7.812
  0
LINE
  5
195
100
AcDbEntity
  8
0
  6
ByLayer
 62
  256
370
   -1
100
AcDbLine
 10
-10.0118
 20
7.812
 11
-10.0266
 21
7.71892
  0
LINE
  5
196
100
AcDbEntity
  8
0
  6
ByLayer
 62
  256
370
   -1
100
AcDbLine
 10
-10.0266
 20
7.71892
 11
-10.0471
 21
7.62695
  0
LINE
  5
197
100
AcDbEntity
  8
0
  6
ByLayer
 62
  256
370
   -1
100
AcDbLine
 10
-10.0471
 20
7.62695
 11
-10.0734
 21
7.53647
  0
LINE
  5
198
100
AcDbEntity
  8
0
  6
ByLayer
 62
  256
370
   -1
100
AcDbLine
 10
-10.0734
 20
7.53647
 11
-10.1053
 21
7.4478
  0
LINE
  5
199
100
AcDbEntity
  8
0
  6
ByLayer
 62
  256
370
   -1
100
AcDbLine
 10
-10.1053
 20
7.4478
 11
-10.1427
 21
7.36133
  0
LINE
  5
19A
100
AcDbEntity
  8
0
  6
ByLayer
 62
  256
370
   -1
100
AcDbLine
 10
-10.1427
 20
7.36133
 11
-10.1855
 21
7.27736
  0
LINE
  5
19B
100
AcDbEntity
  8
0
  6
ByLayer
 62
  256
370
   -1
100
AcDbLine
 10
-10.1855
 20
7.27736
 11
-10.2335
 21
7.19626
  0
LINE
  5
19C
100
AcDbEntity
  8
0
  6
ByLayer
 62
  256
370
   -1
100
AcDbLine
 10
-10.2335
 20
7.19626
 11
-10.2865
 21
7.11832
  0
LINE
  5
19D
100
AcDbEntity
  8
0
  6
ByLayer
 62
  256
370
   -1
100
AcDbLine
 10
-10.2865
 20
7.11832
 11
-10.3442
 21
7.04385
  0
LINE
  5
19E
100
AcDbEntity
  8
0
  6
ByLayer
 62
  256
370
   -1
100
AcDbLine
 10
-10.3442
 20
7.04385
 11
-10.4065
 21
6.97318
  0
LINE
  5
19F
100
AcDbEntity
  8
0
  6
ByLayer
 62
  256
370
   -1
100
AcDbLine
 10
-10.4065
 20
6.97318
 11
-10.4732
 21
6.90654
  0
LINE
  5
1A0
100
AcDbEntity
  8
0
  6
ByLayer
 62
  256
370
   -1
100
AcDbLine
 10
-10.4732
 20
6.90654
 11
-10.5439
 21
6.84422
  0
LINE
  5
1A1
100
AcDbEntity
  8
0
  6
ByLayer
 62
  256
370
   -1
100
AcDbLine
 10
-10.5439
 20
6.84422
 11
-10.6183
 21
6.78647
  0
LINE
  5
1A2
100
AcDbEntity
  8
0
  6
ByLayer
 62
  256
370
   -1
100
AcDbLine
 10
-10.6183
 20
6.78647
 11
-10.6963
 21
6.73351
  0
LINE
  5
1A3
100
AcDbEntity
  8
0
  6
ByLayer
 62
  256
370
   -1
100
AcDbLine
 10
-10.6963
 20
6.73351
 11
-10.7774
 21
6.68553
  0
LINE
  5
1A4
100
AcDbEntity
  8
0
  6
ByLayer
 62
  256
370
   -1
100
AcDbLine
 10
-10.7774
 20
6.68553
 11
-10.8613
 21
6.64275
  0
LINE
  5
1A5
100
AcDbEntity
  8
0
  6
ByLayer
 62
  256
370
   -1
100
AcDbLine
 10
-10.8613
 20
6.64275
 11
-10.9478
 21
6.60533
  0
LINE
  5
1A6
100
AcDbEntity
  8
0
  6
ByLayer
 62
  256
370
   -1
100
AcDbLine
 10
-10.9478
 20
6.60533
 11
-11.0365
 21
6.57341
  0
LINE
  5
1A7
100
AcDbEntity
  8
0
  6
ByLayer
 62
  256
370
   -1
100
AcDbLine
 10
-11.0365
 20
6.57341
 11
-11.127
 21
6.54712
  0
LINE
  5
1A8
100
AcDbEntity
  8
0
  6
ByLayer
 62
  256
370
   -1
100
AcDbLine
 10
-11.127
 20
6.54712
 11
-11.2189
 21
6.52657
  0
LINE
  5
1A9
100
AcDbEntity
  8
0
  6
ByLayer
 62
  256
370
   -1
100
AcDbLine
 10
-11.2189
 20
6.52657
 11
-11.312
 21
6.51183
  0
LINE
  5
1AA
100
AcDbEntity
  8
0
  6
ByLayer
 62
  256
370
   -1
100
AcDbLine
 10
-11.312
 20
6.51183
 11
-11.4058
 21
6.50294
  0
LINE
  5
1AB
100
AcDbEntity
  8
0
  6
ByLayer
 62
  256
370
   -1
100
AcDbLine
 10
-11.4058
 20
6.50294
 11
-11.5
 21
6.5
  0
LINE
  5
1AC
100
AcDbEntity
  8
0
  6
ByLayer
 62
  256
370
   -1
100
AcDbLine
 10
11.5
 20
6.5
 11
11.4058
 21
6.50294
  0
LINE
  5
1AD
100
AcDbEntity
  8
0
  6
ByLayer
 62
  256
370
   -1
100
AcDbLine
 10
11.4058
 20
6.50294
 11
11.312
 21
6.51183
  0
LINE
  5
1AE
100
AcDbEntity
  8
0
  6
ByLayer
 62
  256
370
   -1
100
AcDbLine
 10
11.312
 20
6.51183
 11
11.2189
 21
6.52657
  0
LINE
  5
1AF
100
AcDbEntity
  8
0
  6
ByLayer
 62
  256
370
   -1
100
AcDbLine
 10
11.2189
 20
6.52657
 11
11.127
 21
6.54712
  0
LINE
  5
1B0
100
AcDbEntity
  8
0
  6
ByLayer
 62
  256
370
   -1
100
AcDbLine
 10
11.127
 20
6.54712
 11
11.0365
 21
6.57341
  0
LINE
  5
1B1
100
AcDbEntity
  8
0
  6
ByLayer
 62
  256
370
   -1
100
AcDbLine
 10
11.0365
 20
6.57341
 11
10.9478
 21
6.60533
  0
LINE
  5
1B2
100
AcDbEntity
  8
0
  6
ByLayer
 62
  256
370
   -1
100
AcDbLine
 10
10.9478
 20
6.60533
 11
10.8613
 21
6.64275
  0
LINE
  5
1B3
100
AcDbEntity
  8
0
  6
ByLayer
 62
  256
370
   -1
100
AcDbLine
 10
10.8613
 20
6.64275
 11
10.7774
 21
6.68553
  0
LINE
  5
1B4
100
AcDbEntity
  8
0
  6
ByLayer
 62
  256
370
   -1
100
AcDbLine
 10
10.7774
 20
6.68553
 11
10.6963
 21
6.73351
  0
LINE
  5
1B5
100
AcDbEntity
  8
0
  6
ByLayer
 62
  256
370
   -1
100
AcDbLine
 10
10.6963
 20
6.73351
 11
10.6183
 21
6.78647
  0
LINE
  5
1B6
100
AcDbEntity
  8
0
  6
ByLayer
 62
  256
370
   -1
100
AcDbLine
 10
10.6183
 20
6.78647
 11
10.5439
 21
6.84422
  0
LINE
  5
1B7
100
AcDbEntity
  8
0
  6
ByLayer
 62
  256
370
   -1
100
AcDbLine
 10
10.5439
 20
6.84422
 11
10.4732
 21
6.90654
  0
LINE
  5
1B8
100
AcDbEntity
  8
0
  6
ByLayer
 62
  256
370
   -1
100
AcDbLine
 10
10.4732
 20
6.90654
 11
10.4065
 21
6.97318
  0
LINE
  5
1B9
100
AcDbEntity
  8
0
  6
ByLayer
 62
  256
370
   -1
100
AcDbLine
 10
10.4065
 20
6.97318
 11
10.3442
 21
7.04385
  0
LINE
  5
1BA
100
AcDbEntity
  8
0
  6
ByLayer
 62
  256
370
   -1
100
AcDbLine
 10
10.3442
 20
7.04385
 11
10.2865
 21
7.11832
  0
LINE
  5
1BB
100
AcDbEntity
  8
0
  6
ByLayer
 62
  256
370
   -1
100
AcDbLine
 10
10.2865
 20
7.11832
 11
10.2335
 21
7.19626
  0
LINE
  5
1BC
100
AcDbEntity
  8
0
  6
ByLayer
 62
  256
370
   -1
100
AcDbLine
 10
10.2335
 20
7.19626
 11
10.1855
 21
7.27736
  0
LINE
  5
1BD
100
AcDbEntity
  8
0
  6
ByLayer
 62
  256
370
   -1
100
AcDbLine
 10
10.1855
 20
7.27736
 11
10.1427
 21
7.36133
  0
LINE
  5
1BE
100
AcDbEntity
  8
0
  6
ByLayer
 62
  256
370
   -1
100
AcDbLine
 10
10.1427
 20
7.36133
 11
10.1053
 21
7.4478
  0
LINE
  5
1BF
100
AcDbEntity
  8
0
  6
ByLayer
 62
  256
370
   -1
100
AcDbLine
 10
10.1053
 20
7.4478
 11
10.0734
 21
7.53647
  0
LINE
  5
1C0
100
AcDbEntity
  8
0
  6
ByLayer
 62
  256
370
   -1
100
AcDbLine
 10
10.0734
 20
7.53647
 11
10.0471
 21
7.62695
  0
LINE
  5
1C1
100
AcDbEntity
  8
0
  6
ByLayer
 62
  256
370
   -1
100
AcDbLine
 10
10.0471
 20
7.62695
 11
10.0266
 21
7.71892
  0
LINE
  5
1C2
100
AcDbEntity
  8
0
  6
ByLayer
 62
  256
370
   -1
100
AcDbLine
 10
10.0266
 20
7.71892
 11
10.0118
 21
7.812
  0
LINE
  5
1C3
100
AcDbEntity
  8
0
  6
ByLayer
 62
  256
370
   -1
100
AcDbLine
 10
10.0118
 20
7.812
 11
10.0029
 21
7.90581
  0
LINE
  5
1C4
100
AcDbEntity
  8
0
  6
ByLayer
 62
  256
370
   -1
100
AcDbLine
 10
10.0029
 20
7.90581
 11
10
 21
8
  0
LINE
  5
1C5
100
AcDbEntity
  8
0
  6
ByLayer
 62
  256
370
   -1
100
AcDbLine
 10
10
 20
8
 11
10.0029
 21
8.09418
  0
LINE
  5
1C6
100
AcDbEntity
  8
0
  6
ByLayer
 62
  256
370
   -1
100
AcDbLine
 10
10.0029
 20
8.09418
 11
10.0118
 21
8.187989999999999
  0
LINE
  5
1C7
100
AcDbEntity
  8
0
  6
ByLayer
 62
  256
370
   -1
100
AcDbLine
 10
10.0118
 20
8.187989999999999
 11
10.0266
 21
8.28107
  0
LINE
  5
1C8
100
AcDbEntity
  8
0
  6
ByLayer
 62
  256
370
   -1
100
AcDbLine
 10
10.0266
 20
8.28107
 11
10.0471
 21
8.37303
  0
LINE
  5
1C9
100
AcDbEntity
  8
0
  6
ByLayer
 62
  256
370
   -1
100
AcDbLine
 10
10.0471
 20
8.37303
 11
10.0734
 21
8.463520000000001
  0
LINE
  5
1CA
100
AcDbEntity
  8
0
  6
ByLayer
 62
  256
370
   -1
100
AcDbLine
 10
10.0734
 20
8.463520000000001
 11
10.1053
 21
8.55219
  0
LINE
  5
1CB
100
AcDbEntity
  8
0
  6
ByLayer
 62
  256
370
   -1
100
AcDbLine
 10
10.1053
 20
8.55219
 11
10.1427
 21
8.63866
  0
LINE
  5
1CC
100
AcDbEntity
  8
0
  6
ByLayer
 62
  256
370
   -1
100
AcDbLine
 10
10.1427
 20
8.63866
 11
10.1855
 21
8.722630000000001
  0
LINE
  5
1CD
100
AcDbEntity
  8
0
  6
ByLayer
 62
  256
370
   -1
100
AcDbLine
 10
10.1855
 20
8.722630000000001
 11
10.2335
 21
8.80373
  0
LINE
  5
1CE
100
AcDbEntity
  8
0
  6
ByLayer
 62
  256
370
   -1
100
AcDbLine
 10
10.2335
 20
8.80373
 11
10.2865
 21
8.88167
  0
LINE
  5
1CF
100
AcDbEntity
  8
0
  6
ByLayer
 62
  256
370
   -1
100
AcDbLine
 10
10.2865
 20
8.88167
 11
10.3442
 21
8.95613
  0
LINE
  5
1D0
100
AcDbEntity
  8
0
  6
ByLayer
 62
  256
370
   -1
100
AcDbLine
 10
10.3442
 20
8.95613
 11
10.4065
 21
9.026809999999999
  0
LINE
  5
1D1
100
AcDbEntity
  8
0
  6
ByLayer
 62
  256
370
   -1
100
AcDbLine
 10
10.4065
 20
9.026809999999999
 11
10.4732
 21
9.093439999999999
  0
LINE
  5
1D2
100
AcDbEntity
  8
0
  6
ByLayer
 62
  256
370
   -1
100
AcDbLine
 10
10.4732
 20
9.093439999999999
 11
10.5439
 21
9.155760000000001
  0
LINE
  5
1D3
100
AcDbEntity
  8
0
  6
ByLayer
 62
  256
370
   -1
100
AcDbLine
 10
10.5439
 20
9.155760000000001
 11
10.6183
 21
9.213520000000001
  0
LINE
  5
1D4
100
AcDbEntity
  8
0
  6
ByLayer
 62
  256
370
   -1
100
AcDbLine
 10
10.6183
 20
9.213520000000001
 11
10.6963
 21
9.26648
  0
LINE
  5
1D5
100
AcDbEntity
  8
0
  6
ByLayer
 62
  256
370
   -1
100
AcDbLine
 10
10.6963
 20
9.26648
 11
10.7774
 21
9.314450000000001
  0
LINE
  5
1D6
100
AcDbEntity
  8
0
  6
ByLayer
 62
  256
370
   -1
100
AcDbLine
 10
10.7774
 20
9.314450000000001
 11
10.8613
 21
9.357239999999999
  0
LINE
  5
1D7
100
AcDbEntity
  8
0
  6
ByLayer
 62
  256
370
   -1
100
AcDbLine
 10
10.8613
 20
9.357239999999999
 11
10.9478
 21
9.39465
  0
LINE
  5
1D8
100
AcDbEntity
  8
0
  6
ByLayer
 62
  256
370
   -1
100
AcDbLine
 10
10.9478
 20
9.39465
 11
11.0365
 21
9.42657
  0
LINE
  5
1D9
100
AcDbEntity
  8
0
  6
ByLayer
 62
  256
370
   -1
100
AcDbLine
 10
11.0365
 20
9.42657
 11
11.127
 21
9.452870000000001
  0
LINE
  5
1DA
100
AcDbEntity
  8
0
  6
ByLayer
 62
  256
370
   -1
100
AcDbLine
 10
11.127
 20
9.452870000000001
 11
11.2189
 21
9.473420000000001
  0
LINE
  5
1DB
100
AcDbEntity
  8
0
  6
ByLayer
 62
  256
370
   -1
100
AcDbLine
 10
11.2189
 20
9.473420000000001
 11
11.312
 21
9.488160000000001
  0
LINE
  5
1DC
100
AcDbEntity
  8
0
  6
ByLayer
 62
  256
370
   -1
100
AcDbLine
 10
11.312
 20
9.488160000000001
 11
11.4058
 21
9.49704
  0
LINE
  5
1DD
100
AcDbEntity
  8
0
  6
ByLayer
 62
  256
370
   -1
100
AcDbLine
 10
11.4058
 20
9.49704
 11
11.5
 21
9.5
  0
LINE
  5
1DE
100
AcDbEntity
  8
0
  6
ByLayer
 62
  256
370
   -1
100
AcDbLine
 10
11.5
 20
9.5
 11
11.5942
 21
9.49704
  0
LINE
  5
1DF
100
AcDbEntity
  8
0
  6
ByLayer
 62
  256
370
   -1
100
AcDbLine
 10
11.5942
 20
9.49704
 11
11.688
 21
9.488160000000001
  0
LINE
  5
1E0
100
AcDbEntity
  8
0
  6
ByLayer
 62
  256
370
   -1
100
AcDbLine
 10
11.688
 20
9.488160000000001
 11
11.7811
 21
9.473420000000001
  0
LINE
  5
1E1
100
AcDbEntity
  8
0
  6
ByLayer
 62
  256
370
   -1
100
AcDbLine
 10
11.7811
 20
9.473420000000001
 11
11.873
 21
9.452870000000001
  0
LINE
  5
1E2
100
AcDbEntity
  8
0
  6
ByLayer
 62
  256
370
   -1
100
AcDbLine
 10
11.873
 20
9.452870000000001
 11
11.9635
 21
9.42657
  0
LINE
  5
1E3
100
AcDbEntity
  8
0
  6
ByLayer
 62
  256
370
   -1
100
AcDbLine
 10
11.9635
 20
9.42657
 11
12.0522
 21
9.39465
  0
LINE
  5
1E4
100
AcDbEntity
  8
0
  6
ByLayer
 62
  256
370
   -1
100
AcDbLine
 10
12.0522
 20
9.39465
 11
12.1387
 21
9.357239999999999
  0
LINE
  5
1E5
100
AcDbEntity
  8
0
  6
ByLayer
 62
  256
370
   -1
100
AcDbLine
 10
12.1387
 20
9.357239999999999
 11
12.2226
 21
9.314450000000001
  0
LINE
  5
1E6
100
AcDbEntity
  8
0
  6
ByLayer
 62
  256
370
   -1
100
AcDbLine
 10
12.2226
 20
9.314450000000001
 11
12.3037
 21
9.26648
  0
LINE
  5
1E7
100
AcDbEntity
  8
0
  6
ByLayer
 62
  256
370
   -1
100
AcDbLine
 10
12.3037
 20
9.26648
 11
12.3817
 21
9.213520000000001
  0
LINE
  5
1E8
100
AcDbEntity
  8
0
  6
ByLayer
 62
  256
370
   -1
100
AcDbLine
 10
12.3817
 20
9.213520000000001
 11
12.4561
 21
9.155760000000001
  0
LINE
  5
1E9
100
AcDbEntity
  8
0
  6
ByLayer
 62
  256
370
   -1
100
AcDbLine
 10
12.4561
 20
9.155760000000001
 11
12.5268
 21
9.093439999999999
  0
LINE
  5
1EA
100
AcDbEntity
  8
0
  6
ByLayer
 62
  256
370
   -1
100
AcDbLine
 10
12.5268
 20
9.093439999999999
 11
12.5934
 21
9.026809999999999
  0
LINE
  5
1EB
100
AcDbEntity
  8
0
  6
ByLayer
 62
  256
370
   -1
100
AcDbLine
 10
12.5934
 20
9.026809999999999
 11
12.6558
 21
8.95613
  0
LINE
  5
1EC
100
AcDbEntity
  8
0
  6
ByLayer
 62
  256
370
   -1
100
AcDbLine
 10
12.6558
 20
8.95613
 11
12.7135
 21
8.88167
  0
LINE
  5
1ED
100
AcDbEntity
  8
0
  6
ByLayer
 62
  256
370
   -1
100
AcDbLine
 10
12.7135
 20
8.88167
 11
12.7665
 21
8.80373
  0
LINE
  5
1EE
100
AcDbEntity
  8
0
  6
ByLayer
 62
  256
370
   -1
100
AcDbLine
 10
12.7665
 20
8.80373
 11
12.8145
 21
8.722630000000001
  0
LINE
  5
1EF
100
AcDbEntity
  8
0
  6
ByLayer
 62
  256
370
   -1
100
AcDbLine
 10
12.8145
 20
8.722630000000001
 11
12.8572
 21
8.63866
  0
LINE
  5
1F0
100
AcDbEntity
  8
0
  6
ByLayer
 62
  256
370
   -1
100
AcDbLine
 10
12.8572
 20
8.63866
 11
12.8947
 21
8.55219
  0
LINE
  5
1F1
100
AcDbEntity
  8
0
  6
ByLayer
 62
  256
370
   -1
100
AcDbLine
 10
12.8947
 20
8.55219
 11
12.9266
 21
8.463520000000001
  0
LINE
  5
1F2
100
AcDbEntity
  8
0
  6
ByLayer
 62
  256
370
   -1
100
AcDbLine
 10
12.9266
 20
8.463520000000001
 11
12.9529
 21
8.37303
  0
LINE
  5
1F3
100
AcDbEntity
  8
0
  6
ByLayer
 62
  256
370
   -1
100
AcDbLine
 10
12.9529
 20
8.37303
 11
12.9734
 21
8.28107
  0
LINE
  5
1F4
100
AcDbEntity
  8
0
  6
ByLayer
 62
  256
370
   -1
100
AcDbLine
 10
12.9734
 20
8.28107
 11
12.9882
 21
8.187989999999999
  0
LINE
  5
1F5
100
AcDbEntity
  8
0
  6
ByLayer
 62
  256
370
   -1
100
AcDbLine
 10
12.9882
 20
8.187989999999999
 11
12.997
 21
8.09418
  0
LINE
  5
1F6
100
AcDbEntity
  8
0
  6
ByLayer
 62
  256
370
   -1
100
AcDbLine
 10
12.997
 20
8.09418
 11
13
 21
8
  0
LINE
  5
1F7
100
AcDbEntity
  8
0
  6
ByLayer
 62
  256
370
   -1
100
AcDbLine
 10
13
 20
8
 11
12.997
 21
7.90581
  0
LINE
  5
1F8
100
AcDbEntity
  8
0
  6
ByLayer
 62
  256
370
   -1
100
AcDbLine
 10
12.997
 20
7.90581
 11
12.9882
 21
7.812
  0
LINE
  5
1F9
100
AcDbEntity
  8
0
  6
ByLayer
 62
  256
370
   -1
100
AcDbLine
 10
12.9882
 20
7.812
 11
12.9734
 21
7.71892
  0
LINE
  5
1FA
100
AcDbEntity
  8
0
  6
ByLayer
 62
  256
370
   -1
100
AcDbLine
 10
12.9734
 20
7.71892
 11
12.9529
 21
7.62695
  0
LINE
  5
1FB
100
AcDbEntity
  8
0
  6
ByLayer
 62
  256
370
   -1
100
AcDbLine
 10
12.9529
 20
7.62695
 11
12.9266
 21
7.53647
  0
LINE
  5
1FC
100
AcDbEntity
  8
0
  6
ByLayer
 62
  256
370
   -1
100
AcDbLine
 10
12.9266
 20
7.53647
 11
12.8947
 21
7.4478
  0
LINE
  5
1FD
100
AcDbEntity
  8
0
  6
ByLayer
 62
  256
370
   -1
100
AcDbLine
 10
12.8947
 20
7.4478
 11
12.8572
 21
7.36133
  0
LINE
  5
1FE
100
AcDbEntity
  8
0
  6
ByLayer
 62
  256
370
   -1
100
AcDbLine
 10
12.8572
 20
7.36133
 11
12.8145
 21
7.27736
  0
LINE
  5
1FF
100
AcDbEntity
  8
0
  6
ByLayer
 62
  256
370
   -1
100
AcDbLine
 10
12.8145
 20
7.27736
 11
12.7665
 21
7.19626
  0
LINE
  5
200
100
AcDbEntity
  8
0
  6
ByLayer
 62
  256
370
   -1
100
AcDbLine
 10
12.7665
 20
7.19626
 11
12.7135
 21
7.11832
  0
LINE
  5
201
100
AcDbEntity
  8
0
  6
ByLayer
 62
  256
370
   -1
100
AcDbLine
 10
12.7135
 20
7.11832
 11
12.6558
 21
7.04385
  0
LINE
  5
202
100
AcDbEntity
  8
0
  6
ByLayer
 62
  256
370
   -1
100
AcDbLine
 10
12.6558
 20
7.04385
 11
12.5934
 21
6.97318
  0
LINE
  5
203
100
AcDbEntity
  8
0
  6
ByLayer
 62
  256
370
   -1
100
AcDbLine
 10
12.5934
 20
6.97318
 11
12.5268
 21
6.90654
  0
LINE
  5
204
100
AcDbEntity
  8
0
  6
ByLayer
 62
  256
370
   -1
100
AcDbLine
 10
12.5268
 20
6.90654
 11
12.4561
 21
6.84422
  0
LINE
  5
205
100
AcDbEntity
  8
0
  6
ByLayer
 62
  256
370
   -1
100
AcDbLine
 10
12.4561
 20
6.84422
 11
12.3817
 21
6.78647
  0
LINE
  5
206
100
AcDbEntity
  8
0
  6
ByLayer
 62
  256
370
   -1
100
AcDbLine
 10
12.3817
 20
6.78647
 11
12.3037
 21
6.73351
  0
LINE
  5
207
100
AcDbEntity
  8
0
  6
ByLayer
 62
  256
370
   -1
100
AcDbLine
 10
12.3037
 20
6.73351
 11
12.2226
 21
6.68553
  0
LINE
  5
208
100
AcDbEntity
  8
0
  6
ByLayer
 62
  256
370
   -1
100
AcDbLine
 10
12.2226
 20
6.68553
 11
12.1387
 21
6.64275
  0
LINE
  5
209
100
AcDbEntity
  8
0
  6
ByLayer
 62
  256
370
   -1
100
AcDbLine
 10
12.1387
 20
6.64275
 11
12.0522
 21
6.60533
  0
LINE
  5
20A
100
AcDbEntity
  8
0
  6
ByLayer
 62
  256
370
   -1
100
AcDbLine
 10
12.0522
 20
6.60533
 11
11.9635
 21
6.57341
  0
LINE
  5
20B
100
AcDbEntity
  8
0
  6
ByLayer
 62
  256
370
   -1
100
AcDbLine
 10
11.9635
 20
6.57341
 11
11.873
 21
6.54712
  0
LINE
  5
20C
100
AcDbEntity
  8
0
  6
ByLayer
 62
  256
370
   -1
100
AcDbLine
 10
11.873
 20
6.54712
 11
11.7811
 21
6.52657
  0
LINE
  5
20D
100
AcDbEntity
  8
0
  6
ByLayer
 62
  256
370
   -1
100
AcDbLine
 10
11.7811
 20
6.52657
 11
11.688
 21
6.51183
  0
LINE
  5
20E
100
AcDbEntity
  8
0
  6
ByLayer
 62
  256
370
   -1
100
AcDbLine
 10
11.688
 20
6.51183
 11
11.5942
 21
6.50294
  0
LINE
  5
20F
100
AcDbEntity
  8
0
  6
ByLayer
 62
  256
370
   -1
100
AcDbLine
 10
11.5942
 20
6.50294
 11
11.5
 21
6.5
  0
CIRCLE
  5
210
100
AcDbEntity
  8
check
  6
ByLayer
 62
  256
370
   -1
100
AcDbCircle
 10
11.49999849474934
 20
7.9999925
 40
1.499256374209619
  0
CIRCLE
  5
211
100
AcDbEntity
  8
check
  6
ByLayer
 62
  256
370
   -1
100
AcDbCircle
 10
-11.50008864822326
 20
7.99948571724303
 40
1.499772713167562
  0
CIRCLE
  5
212
100
AcDbEntity
  8
check
  6
ByLayer
 62
  256
370
   -1
100
AcDbCircle
 10
7.464779344990013e-06
 20
31.29997201863843
 40
1.499979618661639
  0
LINE
  5
213
100
AcDbEntity
  8
check
  6
ByLayer
 62
  256
370
   -1
100
AcDbLine
 10
-21
 20
52
 11
-21
 21
0
  0
LINE
  5
214
100
AcDbEntity
  8
check
  6
ByLayer
 62
  256
370
   -1
100
AcDbLine
 10
-21
 20
0
 11
21
 21
0
  0
LINE
  5
215
100
AcDbEntity
  8
check
  6
ByLayer
 62
  256
370
   -1
100
AcDbLine
 10
21
 20
0
 11
21
 21
52
  0
LINE
  5
216
100
AcDbEntity
  8
check
  6
ByLayer
 62
  256
370
   -1
100
AcDbLine
 10
21
 20
52
 11
-21
 21
52
  0
LINE
  5
217
100
AcDbEntity
  8
check
  6
ByLayer
 62
  256
370
   -1
100
AcDbLine
 10
-18.8
 20
50.1
 11
-18.8
 21
12.5
  0
LINE
  5
218
100
AcDbEntity
  8
check
  6
ByLayer
 62
  256
370
   -1
100
AcDbLine
 10
-18.8
 20
12.5
 11
-3
 21
12.5
  0
LINE
  5
219
100
AcDbEntity
  8
check
  6
ByLayer
 62
  256
370
   -1
100
AcDbLine
 10
-3
 20
12.5
 11
-3
 21
34.3
  0
LINE
  5
21A
100
AcDbEntity
  8
check
  6
ByLayer
 62
  256
370
   -1
100
AcDbLine
 10
-3
 20
34.3
 11
3
 21
34.3
  0
LINE
  5
21B
100
AcDbEntity
  8
check
  6
ByLayer
 62
  256
370
   -1
100
AcDbLine
 10
3
 20
34.3
 11
3
 21
12.5
  0
LINE
  5
21C
100
AcDbEntity
  8
check
  6
ByLayer
 62
  256
370
   -1
100
AcDbLine
 10
3
 20
12.5
 11
18.8
 21
12.5
  0
LINE
  5
21D
100
AcDbEntity
  8
check
  6
ByLayer
 62
  256
370
   -1
100
AcDbLine
 10
18.8
 20
12.5
 11
18.8
 21
50.1
  0
LINE
  5
21E
100
AcDbEntity
  8
check
  6
ByLayer
 62
  256
370
   -1
100
AcDbLine
 10
-18.8
 20
50.1
 11
18.8
 21
50.1
  0
DIMENSION
  5
21F
100
AcDbEntity
  8
check
  6
ByLayer
 62
  256
370
   -1
100
AcDbDimension
  2
*D1
 10
21
 20
60
 30
0
 11
1.148106374200644e-16
 21
61.875
 31
0
 70
   32
 71
    5
  3
Standard
 53
0
210
0
220
0
230
1
100
AcDbAlignedDimension
 13
-21
 23
52
 33
0
 14
21
 24
52
 34
0
100
AcDbRotatedDimension
  0
DIMENSION
  5
220
100
AcDbEntity
  8
check
  6
ByLayer
 62
  256
370
   -1
100
AcDbDimension
  2
*D2
 10
-40
 20
2.326828918379971e-15
 30
0
 11
-41.875
 21
26
 31
0
 70
   32
 71
    5
  3
Standard
 53
0
210
0
220
0
230
1
100
AcDbAlignedDimension
 13
-21
 23
52
 33
0
 14
-21
 24
0
 34
0
 50
90
100
AcDbRotatedDimension
  0
DIMENSION
  5
221
100
AcDbEntity
  8
check
  6
ByLayer
 62
  256
370
   -1
100
AcDbDimension
  2
*D3
 10
-30
 20
1.102182119232618e-15
 30
0
 11
-31.875
 21
6.249999999999999
 31
0
 70
   32
 71
    5
  3
Standard
 53
0
210
0
220
0
230
1
100
AcDbAlignedDimension
 13
-18.8
 23
12.5
 33
0
 14
-21
 24
0
 34
0
 50
90
100
AcDbRotatedDimension
  0
DIMENSION
  5
222
100
AcDbEntity
  8
check
  6
ByLayer
 62
  256
370
   -1
100
AcDbDimension
  2
*D4
 10
-50
 20
3.551475717527324e-15
 30
0
 11
-51.875
 21
17.15
 31
0
 70
   32
 71
    5
  3
Standard
 53
0
210
0
220
0
230
1
100
AcDbAlignedDimension
 13
-3
 23
34.3
 33
0
 14
-21
 24
0
 34
0
 50
90
100
AcDbRotatedDimension
  0
DIMENSION
  5
223
100
AcDbEntity
  8
check
  6
ByLayer
 62
  256
370
   -1
100
AcDbDimension
  2
*D5
 10
-21
 20
-10
 30
0
 11
-19.9
 21
-8.125
 31
0
 70
   32
 71
    5
  3
Standard
 53
0
210
0
220
0
230
1
100
AcDbAlignedDimension
 13
-18.8
 23
12.5
 33
0
 14
-21
 24
0
 34
0
100
AcDbRotatedDimension
  0
DIMENSION
  5
224
100
AcDbEntity
  8
check
  6
ByLayer
 62
  256
370
   -1
100
AcDbDimension
  2
*D6
 10
-21
 20
-18
 30
0
 11
-12
 21
-16.125
 31
0
 70
   32
 71
    5
  3
Standard
 53
0
210
0
220
0
230
1
100
AcDbAlignedDimension
 13
-3
 23
12.5
 33
0
 14
-21
 24
1
 34
0
100
AcDbRotatedDimension
  0
DIMENSION
  5
225
100
AcDbEntity
  8
check
  6
ByLayer
 62
  256
370
   -1
100
AcDbDimension
  2
*D7
 10
-21
 20
-30
 30
0
 11
-8.999999999999998
 21
-28.125
 31
0
 70
   32
 71
    5
  3
Standard
 53
0
210
0
220
0
230
1
100
AcDbAlignedDimension
 13
3
 23
34.3
 33
0
 14
-21
 24
0
 34
0
100
AcDbRotatedDimension
  0
DIMENSION
  5
226
100
AcDbEntity
  8
check
  6
ByLayer
 62
  256
370
   -1
100
AcDbDimension
  2
*D8
 10
-21
 20
-40
 30
0
 11
-1.099999999999999
 21
-38.125
 31
0
 70
   32
 71
    5
  3
Standard
 53
0
210
0
220
0
230
1
100
AcDbAlignedDimension
 13
18.8
 23
12.5
 33
0
 14
-21
 24
0
 34
0
100
AcDbRotatedDimension
  0
DIMENSION
  5
227
100
AcDbEntity
  8
check
  6
ByLayer
 62
  256
370
   -1
100
AcDbDimension
  2
*D9
 10
-21
 20
-50
 30
0
 11
-16.25004432411163
 21
-48.125
 31
0
 70
   32
 71
    5
  3
Standard
 53
0
210
0
220
0
230
1
100
AcDbAlignedDimension
 13
-11.50008864822326
 23
7.99948571724303
 33
0
 14
-21
 24
0
 34
0
100
AcDbRotatedDimension
  0
DIMENSION
  5
228
100
AcDbEntity
  8
check
  6
ByLayer
 62
  256
370
   -1
100
AcDbDimension
  2
*D10
 10
-21
 20
-60
 30
0
 11
-10.49999626761033
 21
-58.125
 31
0
 70
   32
 71
    5
  3
Standard
 53
0
210
0
220
0
230
1
100
AcDbAlignedDimension
 13
7.464779344990013e-06
 23
31.29997201863843
 33
0
 14
-21
 24
0
 34
0
100
AcDbRotatedDimension
  0
DIMENSION
  5
229
100
AcDbEntity
  8
check
  6
ByLayer
 62
  256
370
   -1
100
AcDbDimension
  2
*D11
 10
-21
 20
-70
 30
0
 11
-4.750000752625327
 21
-68.125
 31
0
 70
   32
 71
    5
  3
Standard
 53
0
210
0
220
0
230
1
100
AcDbAlignedDimension
 13
11.49999849474934
 23
7.9999925
 33
0
 14
-21
 24
0
 34
0
100
AcDbRotatedDimension
  0
DIMENSION
  5
22A
100
AcDbEntity
  8
check
  6
ByLayer
 62
  256
370
   -1
100
AcDbDimension
  2
*D12
 10
-70
 20
6.00076931582203e-15
 30
0
 11
-71.875
 21
25.05
 31
0
 70
   32
 71
    5
  3
Standard
 53
0
210
0
220
0
230
1
100
AcDbAlignedDimension
 13
-18.8
 23
50.1
 33
0
 14
-21
 24
0
 34
0
 50
90
100
AcDbRotatedDimension
  0
DIMENSION
  5
22B
100
AcDbEntity
  8
check
  6
ByLayer
 62
  256
370
   -1
100
AcDbDimension
  2
*D13
 10
40
 20
-7.200923178986436e-15
 30
0
 11
38.125
 21
3.999742858621512
 31
0
 70
   32
 71
    5
  3
Standard
 53
0
210
0
220
0
230
1
100
AcDbAlignedDimension
 13
-11.50008864822326
 23
7.99948571724303
 33
0
 14
-18.8
 24
0
 34
0
 50
90
100
AcDbRotatedDimension
  0
DIMENSION
  5
22C
100
AcDbEntity
  8
check
  6
ByLayer
 62
  256
370
   -1
100
AcDbDimension
  2
*D14
 10
-11.50008864822326
 20
7.99948571724303
 30
0
 11
-11.91568164099691
 21
16.9110570218628
 31
0
 70
   36
 71
    5
  3
Standard
 53
0
210
0
220
0
230
1
100
AcDbRadialDimension
 15
-11.25352612530807
 25
9.478852174026368
 35
0
 40
0
  0
DIMENSION
  5
22D
100
AcDbEntity
  8
check
  6
ByLayer
 62
  256
370
   -1
100
AcDbDimension
  2
*D15
 10
50
 20
-4.898587196589413e-15
 30
0
 11
48.125
 21
15.64998600931921
 31
0
 70
   32
 71
    5
  3
Standard
 53
0
210
0
220
0
230
1
100
AcDbAlignedDimension
 13
7.464779344990013e-06
 23
31.29997201863843
 33
0
 14
10
 24
0
 34
0
 50
90
100
AcDbRotatedDimension
  0
DIMENSION
  5
22E
100
AcDbEntity
  8
check
  6
ByLayer
 62
  256
370
   -1
100
AcDbDimension
  2
*D16
 10
7.464779344990013e-06
 20
31.29997201863843
 30
0
 11
-4.743486113897914
 21
38.69511602676523
 31
0
 70
   36
 71
    5
  3
Standard
 53
0
210
0
220
0
230
1
100
AcDbRadialDimension
 15
-1.060638295217912
 25
32.36061777863569
 35
0
 40
0
  0
ENDSEC
  0
SECTION
  2
OBJECTS
  0
DICTIONARY
  5
C
330
0
100
AcDbDictionary
281
    1
  3
ACAD_GROUP
350
D
  0
DICTIONARY
  5
D
330
C
100
AcDbDictionary
281
    1
  0
ENDSEC
  0
EOF
