  0
SECTION
  2
BLOCKS
  0
ENDSEC
  0
SECTION
  2
ENTITIES
  0
LINE
  8
0
 10
21
 20
52
 11
-21
 21
52
  0
LINE
  8
0
 10
-21
 20
52
 11
-21
 21
0
  0
LINE
  8
0
 10
-21
 20
0
 11
21
 21
0
  0
LINE
  8
0
 10
21
 20
0
 11
21
 21
52
  0
LINE
  8
0
 10
-18.8
 20
12.5
 11
-18.8
 21
50.1
  0
LINE
  8
0
 10
-18.8
 20
50.1
 11
18.8
 21
50.1
  0
LINE
  8
0
 10
18.8
 20
50.1
 11
18.8
 21
12.5
  0
LINE
  8
0
 10
18.8
 20
12.5
 11
3
 21
12.5
  0
LINE
  8
0
 10
3
 20
12.5
 11
3
 21
34.3
  0
LINE
  8
0
 10
3
 20
34.3
 11
-3
 21
34.3
  0
LINE
  8
0
 10
-3
 20
34.3
 11
-3
 21
12.5
  0
LINE
  8
0
 10
-3
 20
12.5
 11
-18.8
 21
12.5
  0
LINE
  8
0
 10
0
 20
29.8
 11
-0.0941772
 21
29.8029
  0
LINE
  8
0
 10
-0.0941772
 20
29.8029
 11
-0.187988
 21
29.8118
  0
LINE
  8
0
 10
-0.187988
 20
29.8118
 11
-0.281067
 21
29.8266
  0
LINE
  8
0
 10
-0.281067
 20
29.8266
 11
-0.373032
 21
29.8471
  0
LINE
  8
0
 10
-0.373032
 20
29.8471
 11
-0.463516
 21
29.8734
  0
LINE
  8
0
 10
-0.463516
 20
29.8734
 11
-0.552185
 21
29.9053
  0
LINE
  8
0
 10
-0.552185
 20
29.9053
 11
-0.638657
 21
29.9427
  0
LINE
  8
0
 10
-0.638657
 20
29.9427
 11
-0.722626
 21
29.9855
  0
LINE
  8
0
 10
-0.722626
 20
29.9855
 11
-0.803726
 21
30.0335
  0
LINE
  8
0
 10
-0.803726
 20
30.0335
 11
-0.881668
 21
30.0865
  0
LINE
  8
0
 10
-0.881668
 20
30.0865
 11
-0.956131
 21
30.1442
  0
LINE
  8
0
 10
-0.956131
 20
30.1442
 11
-1.02681
 21
30.2065
  0
LINE
  8
0
 10
-1.02681
 20
30.2065
 11
-1.09344
 21
30.2732
  0
LINE
  8
0
 10
-1.09344
 20
30.2732
 11
-1.15576
 21
30.3439
  0
LINE
  8
0
 10
-1.15576
 20
30.3439
 11
-1.21352
 21
30.4183
  0
LINE
  8
0
 10
-1.21352
 20
30.4183
 11
-1.26648
 21
30.4962
  0
LINE
  8
0
 10
-1.26648
 20
30.4962
 11
-1.31445
 21
30.5774
  0
LINE
  8
0
 10
-1.31445
 20
30.5774
 11
-1.35724
 21
30.6613
  0
LINE
  8
0
 10
-1.35724
 20
30.6613
 11
-1.39465
 21
30.7478
  0
LINE
  8
0
 10
-1.39465
 20
30.7478
 11
-1.42657
 21
30.8365
  0
LINE
  8
0
 10
-1.42657
 20
30.8365
 11
-1.45287
 21
30.927
  0
LINE
  8
0
 10
-1.45287
 20
30.927
 11
-1.47342
 21
31.0189
  0
LINE
  8
0
 10
-1.47342
 20
31.0189
 11
-1.48816
 21
31.112
  0
LINE
  8
0
 10
-1.48816
 20
31.112
 11
-1.49704
 21
31.2058
  0
LINE
  8
0
 10
-1.49704
 20
31.2058
 11
-1.5
 21
31.3
  0
LINE
  8
0
 10
-1.5
 20
31.3
 11
-1.49704
 21
31.3942
  0
LINE
  8
0
 10
-1.49704
 20
31.3942
 11
-1.48816
 21
31.488
  0
LINE
  8
0
 10
-1.48816
 20
31.488
 11
-1.47342
 21
31.5811
  0
LINE
  8
0
 10
-1.47342
 20
31.5811
 11
-1.45287
 21
31.673
  0
LINE
  8
0
 10
-1.45287
 20
31.673
 11
-1.42657
 21
31.7635
  0
LINE
  8
0
 10
-1.42657
 20
31.7635
 11
-1.39465
 21
31.8522
  0
LINE
  8
0
 10
-1.39465
 20
31.8522
 11
-1.35724
 21
31.9387
  0
LINE
  8
0
 10
-1.35724
 20
31.9387
 11
-1.31445
 21
32.0226
  0
LINE
  8
0
 10
-1.31445
 20
32.0226
 11
-1.26648
 21
32.1037
  0
LINE
  8
0
 10
-1.26648
 20
32.1037
 11
-1.21352
 21
32.1817
  0
LINE
  8
0
 10
-1.21352
 20
32.1817
 11
-1.15576
 21
32.2561
  0
LINE
  8
0
 10
-1.15576
 20
32.2561
 11
-1.09344
 21
32.3268
  0
LINE
  8
0
 10
-1.09344
 20
32.3268
 11
-1.02681
 21
32.3934
  0
LINE
  8
0
 10
-1.02681
 20
32.3934
 11
-0.956131
 21
32.4558
  0
LINE
  8
0
 10
-0.956131
 20
32.4558
 11
-0.881668
 21
32.5135
  0
LINE
  8
0
 10
-0.881668
 20
32.5135
 11
-0.803726
 21
32.5665
  0
LINE
  8
0
 10
-0.803726
 20
32.5665
 11
-0.722626
 21
32.6145
  0
LINE
  8
0
 10
-0.722626
 20
32.6145
 11
-0.638657
 21
32.6572
  0
LINE
  8
0
 10
-0.638657
 20
32.6572
 11
-0.552185
 21
32.6947
  0
LINE
  8
0
 10
-0.552185
 20
32.6947
 11
-0.463516
 21
32.7266
  0
LINE
  8
0
 10
-0.463516
 20
32.7266
 11
-0.373032
 21
32.7529
  0
LINE
  8
0
 10
-0.373032
 20
32.7529
 11
-0.281067
 21
32.7734
  0
LINE
  8
0
 10
-0.281067
 20
32.7734
 11
-0.187988
 21
32.7882
  0
LINE
  8
0
 10
-0.187988
 20
32.7882
 11
-0.0941772
 21
32.797
  0
LINE
  8
0
 10
-0.0941772
 20
32.797
 11
0
 21
32.8
  0
LINE
  8
0
 10
0
 20
32.8
 11
0.0941772
 21
32.797
  0
LINE
  8
0
 10
0.0941772
 20
32.797
 11
0.187988
 21
32.7882
  0
LINE
  8
0
 10
0.187988
 20
32.7882
 11
0.281067
 21
32.7734
  0
LINE
  8
0
 10
0.281067
 20
32.7734
 11
0.373032
 21
32.7529
  0
LINE
  8
0
 10
0.373032
 20
32.7529
 11
0.463516
 21
32.7266
  0
LINE
  8
0
 10
0.463516
 20
32.7266
 11
0.552185
 21
32.6947
  0
LINE
  8
0
 10
0.552185
 20
32.6947
 11
0.638657
 21
32.6572
  0
LINE
  8
0
 10
0.638657
 20
32.6572
 11
0.722626
 21
32.6145
  0
LINE
  8
0
 10
0.722626
 20
32.6145
 11
0.803726
 21
32.5665
  0
LINE
  8
0
 10
0.803726
 20
32.5665
 11
0.881668
 21
32.5135
  0
LINE
  8
0
 10
0.881668
 20
32.5135
 11
0.956131
 21
32.4558
  0
LINE
  8
0
 10
0.956131
 20
32.4558
 11
1.02681
 21
32.3934
  0
LINE
  8
0
 10
1.02681
 20
32.3934
 11
1.09344
 21
32.3268
  0
LINE
  8
0
 10
1.09344
 20
32.3268
 11
1.15576
 21
32.2561
  0
LINE
  8
0
 10
1.15576
 20
32.2561
 11
1.21352
 21
32.1817
  0
LINE
  8
0
 10
1.21352
 20
32.1817
 11
1.26648
 21
32.1037
  0
LINE
  8
0
 10
1.26648
 20
32.1037
 11
1.31445
 21
32.0226
  0
LINE
  8
0
 10
1.31445
 20
32.0226
 11
1.35724
 21
31.9387
  0
LINE
  8
0
 10
1.35724
 20
31.9387
 11
1.39465
 21
31.8522
  0
LINE
  8
0
 10
1.39465
 20
31.8522
 11
1.42657
 21
31.7635
  0
LINE
  8
0
 10
1.42657
 20
31.7635
 11
1.45287
 21
31.673
  0
LINE
  8
0
 10
1.45287
 20
31.673
 11
1.47342
 21
31.5811
  0
LINE
  8
0
 10
1.47342
 20
31.5811
 11
1.48816
 21
31.488
  0
LINE
  8
0
 10
1.48816
 20
31.488
 11
1.49704
 21
31.3942
  0
LINE
  8
0
 10
1.49704
 20
31.3942
 11
1.5
 21
31.3
  0
LINE
  8
0
 10
1.5
 20
31.3
 11
1.49704
 21
31.2058
  0
LINE
  8
0
 10
1.49704
 20
31.2058
 11
1.48816
 21
31.112
  0
LINE
  8
0
 10
1.48816
 20
31.112
 11
1.47342
 21
31.0189
  0
LINE
  8
0
 10
1.47342
 20
31.0189
 11
1.45287
 21
30.927
  0
LINE
  8
0
 10
1.45287
 20
30.927
 11
1.42657
 21
30.8365
  0
LINE
  8
0
 10
1.42657
 20
30.8365
 11
1.39465
 21
30.7478
  0
LINE
  8
0
 10
1.39465
 20
30.7478
 11
1.35724
 21
30.6613
  0
LINE
  8
0
 10
1.35724
 20
30.6613
 11
1.31445
 21
30.5774
  0
LINE
  8
0
 10
1.31445
 20
30.5774
 11
1.26648
 21
30.4962
  0
LINE
  8
0
 10
1.26648
 20
30.4962
 11
1.21352
 21
30.4183
  0
LINE
  8
0
 10
1.21352
 20
30.4183
 11
1.15576
 21
30.3439
  0
LINE
  8
0
 10
1.15576
 20
30.3439
 11
1.09344
 21
30.2732
  0
LINE
  8
0
 10
1.09344
 20
30.2732
 11
1.02681
 21
30.2065
  0
LINE
  8
0
 10
1.02681
 20
30.2065
 11
0.956131
 21
30.1442
  0
LINE
  8
0
 10
0.956131
 20
30.1442
 11
0.881668
 21
30.0865
  0
LINE
  8
0
 10
0.881668
 20
30.0865
 11
0.803726
 21
30.0335
  0
LINE
  8
0
 10
0.803726
 20
30.0335
 11
0.722626
 21
29.9855
  0
LINE
  8
0
 10
0.722626
 20
29.9855
 11
0.638657
 21
29.9427
  0
LINE
  8
0
 10
0.638657
 20
29.9427
 11
0.552185
 21
29.9053
  0
LINE
  8
0
 10
0.552185
 20
29.9053
 11
0.463516
 21
29.8734
  0
LINE
  8
0
 10
0.463516
 20
29.8734
 11
0.373032
 21
29.8471
  0
LINE
  8
0
 10
0.373032
 20
29.8471
 11
0.281067
 21
29.8266
  0
LINE
  8
0
 10
0.281067
 20
29.8266
 11
0.187988
 21
29.8118
  0
LINE
  8
0
 10
0.187988
 20
29.8118
 11
0.0941772
 21
29.8029
  0
LINE
  8
0
 10
0.0941772
 20
29.8029
 11
0
 21
29.8
  0
LINE
  8
0
 10
-11.5
 20
6.5
 11
-11.5942
 21
6.50294
  0
LINE
  8
0
 10
-11.5942
 20
6.50294
 11
-11.688
 21
6.51183
  0
LINE
  8
0
 10
-11.688
 20
6.51183
 11
-11.7811
 21
6.52657
  0
LINE
  8
0
 10
-11.7811
 20
6.52657
 11
-11.873
 21
6.54712
  0
LINE
  8
0
 10
-11.873
 20
6.54712
 11
-11.9635
 21
6.57341
  0
LINE
  8
0
 10
-11.9635
 20
6.57341
 11
-12.0522
 21
6.60533
  0
LINE
  8
0
 10
-12.0522
 20
6.60533
 11
-12.1387
 21
6.64275
  0
LINE
  8
0
 10
-12.1387
 20
6.64275
 11
-12.2226
 21
6.68553
  0
LINE
  8
0
 10
-12.2226
 20
6.68553
 11
-12.3037
 21
6.73351
  0
LINE
  8
0
 10
-12.3037
 20
6.73351
 11
-12.3817
 21
6.78647
  0
LINE
  8
0
 10
-12.3817
 20
6.78647
 11
-12.4561
 21
6.84422
  0
LINE
  8
0
 10
-12.4561
 20
6.84422
 11
-12.5268
 21
6.90654
  0
LINE
  8
0
 10
-12.5268
 20
6.90654
 11
-12.5934
 21
6.97318
  0
LINE
  8
0
 10
-12.5934
 20
6.97318
 11
-12.6558
 21
7.04385
  0
LINE
  8
0
 10
-12.6558
 20
7.04385
 11
-12.7135
 21
7.11832
  0
LINE
  8
0
 10
-12.7135
 20
7.11832
 11
-12.7665
 21
7.19626
  0
LINE
  8
0
 10
-12.7665
 20
7.19626
 11
-12.8145
 21
7.27736
  0
LINE
  8
0
 10
-12.8145
 20
7.27736
 11
-12.8572
 21
7.36133
  0
LINE
  8
0
 10
-12.8572
 20
7.36133
 11
-12.8947
 21
7.4478
  0
LINE
  8
0
 10
-12.8947
 20
7.4478
 11
-12.9266
 21
7.53647
  0
LINE
  8
0
 10
-12.9266
 20
7.53647
 11
-12.9529
 21
7.62695
  0
LINE
  8
0
 10
-12.9529
 20
7.62695
 11
-12.9734
 21
7.71892
  0
LINE
  8
0
 10
-12.9734
 20
7.71892
 11
-12.9882
 21
7.812
  0
LINE
  8
0
 10
-12.9882
 20
7.812
 11
-12.997
 21
7.90581
  0
LINE
  8
0
 10
-12.997
 20
7.90581
 11
-13
 21
8
  0
LINE
  8
0
 10
-13
 20
8
 11
-12.997
 21
8.09418
  0
LINE
  8
0
 10
-12.997
 20
8.09418
 11
-12.9882
 21
8.18799
  0
LINE
  8
0
 10
-12.9882
 20
8.18799
 11
-12.9734
 21
8.28107
  0
LINE
  8
0
 10
-12.9734
 20
8.28107
 11
-12.9529
 21
8.37303
  0
LINE
  8
0
 10
-12.9529
 20
8.37303
 11
-12.9266
 21
8.46352
  0
LINE
  8
0
 10
-12.9266
 20
8.46352
 11
-12.8947
 21
8.55219
  0
LINE
  8
0
 10
-12.8947
 20
8.55219
 11
-12.8572
 21
8.63866
  0
LINE
  8
0
 10
-12.8572
 20
8.63866
 11
-12.8145
 21
8.72263
  0
LINE
  8
0
 10
-12.8145
 20
8.72263
 11
-12.7665
 21
8.80373
  0
LINE
  8
0
 10
-12.7665
 20
8.80373
 11
-12.7135
 21
8.88167
  0
LINE
  8
0
 10
-12.7135
 20
8.88167
 11
-12.6558
 21
8.95613
  0
LINE
  8
0
 10
-12.6558
 20
8.95613
 11
-12.5934
 21
9.02681
  0
LINE
  8
0
 10
-12.5934
 20
9.02681
 11
-12.5268
 21
9.09344
  0
LINE
  8
0
 10
-12.5268
 20
9.09344
 11
-12.4561
 21
9.15576
  0
LINE
  8
0
 10
-12.4561
 20
9.15576
 11
-12.3817
 21
9.21352
  0
LINE
  8
0
 10
-12.3817
 20
9.21352
 11
-12.3037
 21
9.26648
  0
LINE
  8
0
 10
-12.3037
 20
9.26648
 11
-12.2226
 21
9.31445
  0
LINE
  8
0
 10
-12.2226
 20
9.31445
 11
-12.1387
 21
9.35724
  0
LINE
  8
0
 10
-12.1387
 20
9.35724
 11
-12.0522
 21
9.39465
  0
LINE
  8
0
 10
-12.0522
 20
9.39465
 11
-11.9635
 21
9.42657
  0
LINE
  8
0
 10
-11.9635
 20
9.42657
 11
-11.873
 21
9.45287
  0
LINE
  8
0
 10
-11.873
 20
9.45287
 11
-11.7811
 21
9.47342
  0
LINE
  8
0
 10
-11.7811
 20
9.47342
 11
-11.688
 21
9.48816
  0
LINE
  8
0
 10
-11.688
 20
9.48816
 11
-11.5942
 21
9.49704
  0
LINE
  8
0
 10
-11.5942
 20
9.49704
 11
-11.5
 21
9.5
  0
LINE
  8
0
 10
-11.5
 20
9.5
 11
-11.4058
 21
9.49704
  0
LINE
  8
0
 10
-11.4058
 20
9.49704
 11
-11.312
 21
9.48816
  0
LINE
  8
0
 10
-11.312
 20
9.48816
 11
-11.2189
 21
9.47342
  0
LINE
  8
0
 10
-11.2189
 20
9.47342
 11
-11.127
 21
9.45287
  0
LINE
  8
0
 10
-11.127
 20
9.45287
 11
-11.0365
 21
9.42657
  0
LINE
  8
0
 10
-11.0365
 20
9.42657
 11
-10.9478
 21
9.39465
  0
LINE
  8
0
 10
-10.9478
 20
9.39465
 11
-10.8613
 21
9.35724
  0
LINE
  8
0
 10
-10.8613
 20
9.35724
 11
-10.7774
 21
9.31445
  0
LINE
  8
0
 10
-10.7774
 20
9.31445
 11
-10.6963
 21
9.26648
  0
LINE
  8
0
 10
-10.6963
 20
9.26648
 11
-10.6183
 21
9.21352
  0
LINE
  8
0
 10
-10.6183
 20
9.21352
 11
-10.5439
 21
9.15576
  0
LINE
  8
0
 10
-10.5439
 20
9.15576
 11
-10.4732
 21
9.09344
  0
LINE
  8
0
 10
-10.4732
 20
9.09344
 11
-10.4065
 21
9.02681
  0
LINE
  8
0
 10
-10.4065
 20
9.02681
 11
-10.3442
 21
8.95613
  0
LINE
  8
0
 10
-10.3442
 20
8.95613
 11
-10.2865
 21
8.88167
  0
LINE
  8
0
 10
-10.2865
 20
8.88167
 11
-10.2335
 21
8.80373
  0
LINE
  8
0
 10
-10.2335
 20
8.80373
 11
-10.1855
 21
8.72263
  0
LINE
  8
0
 10
-10.1855
 20
8.72263
 11
-10.1427
 21
8.63866
  0
LINE
  8
0
 10
-10.1427
 20
8.63866
 11
-10.1053
 21
8.55219
  0
LINE
  8
0
 10
-10.1053
 20
8.55219
 11
-10.0734
 21
8.46352
  0
LINE
  8
0
 10
-10.0734
 20
8.46352
 11
-10.0471
 21
8.37303
  0
LINE
  8
0
 10
-10.0471
 20
8.37303
 11
-10.0266
 21
8.28107
  0
LINE
  8
0
 10
-10.0266
 20
8.28107
 11
-10.0118
 21
8.18799
  0
LINE
  8
0
 10
-10.0118
 20
8.18799
 11
-10.0029
 21
8.09418
  0
LINE
  8
0
 10
-10.0029
 20
8.09418
 11
-10
 21
8
  0
LINE
  8
0
 10
-10
 20
8
 11
-10.0029
 21
7.90581
  0
LINE
  8
0
 10
-10.0029
 20
7.90581
 11
-10.0118
 21
7.812
  0
LINE
  8
0
 10
-10.0118
 20
7.812
 11
-10.0266
 21
7.71892
  0
LINE
  8
0
 10
-10.0266
 20
7.71892
 11
-10.0471
 21
7.62695
  0
LINE
  8
0
 10
-10.0471
 20
7.62695
 11
-10.0734
 21
7.53647
  0
LINE
  8
0
 10
-10.0734
 20
7.53647
 11
-10.1053
 21
7.4478
  0
LINE
  8
0
 10
-10.1053
 20
7.4478
 11
-10.1427
 21
7.36133
  0
LINE
  8
0
 10
-10.1427
 20
7.36133
 11
-10.1855
 21
7.27736
  0
LINE
  8
0
 10
-10.1855
 20
7.27736
 11
-10.2335
 21
7.19626
  0
LINE
  8
0
 10
-10.2335
 20
7.19626
 11
-10.2865
 21
7.11832
  0
LINE
  8
0
 10
-10.2865
 20
7.11832
 11
-10.3442
 21
7.04385
  0
LINE
  8
0
 10
-10.3442
 20
7.04385
 11
-10.4065
 21
6.97318
  0
LINE
  8
0
 10
-10.4065
 20
6.97318
 11
-10.4732
 21
6.90654
  0
LINE
  8
0
 10
-10.4732
 20
6.90654
 11
-10.5439
 21
6.84422
  0
LINE
  8
0
 10
-10.5439
 20
6.84422
 11
-10.6183
 21
6.78647
  0
LINE
  8
0
 10
-10.6183
 20
6.78647
 11
-10.6963
 21
6.73351
  0
LINE
  8
0
 10
-10.6963
 20
6.73351
 11
-10.7774
 21
6.68553
  0
LINE
  8
0
 10
-10.7774
 20
6.68553
 11
-10.8613
 21
6.64275
  0
LINE
  8
0
 10
-10.8613
 20
6.64275
 11
-10.9478
 21
6.60533
  0
LINE
  8
0
 10
-10.9478
 20
6.60533
 11
-11.0365
 21
6.57341
  0
LINE
  8
0
 10
-11.0365
 20
6.57341
 11
-11.127
 21
6.54712
  0
LINE
  8
0
 10
-11.127
 20
6.54712
 11
-11.2189
 21
6.52657
  0
LINE
  8
0
 10
-11.2189
 20
6.52657
 11
-11.312
 21
6.51183
  0
LINE
  8
0
 10
-11.312
 20
6.51183
 11
-11.4058
 21
6.50294
  0
LINE
  8
0
 10
-11.4058
 20
6.50294
 11
-11.5
 21
6.5
  0
LINE
  8
0
 10
11.5
 20
6.5
 11
11.4058
 21
6.50294
  0
LINE
  8
0
 10
11.4058
 20
6.50294
 11
11.312
 21
6.51183
  0
LINE
  8
0
 10
11.312
 20
6.51183
 11
11.2189
 21
6.52657
  0
LINE
  8
0
 10
11.2189
 20
6.52657
 11
11.127
 21
6.54712
  0
LINE
  8
0
 10
11.127
 20
6.54712
 11
11.0365
 21
6.57341
  0
LINE
  8
0
 10
11.0365
 20
6.57341
 11
10.9478
 21
6.60533
  0
LINE
  8
0
 10
10.9478
 20
6.60533
 11
10.8613
 21
6.64275
  0
LINE
  8
0
 10
10.8613
 20
6.64275
 11
10.7774
 21
6.68553
  0
LINE
  8
0
 10
10.7774
 20
6.68553
 11
10.6963
 21
6.73351
  0
LINE
  8
0
 10
10.6963
 20
6.73351
 11
10.6183
 21
6.78647
  0
LINE
  8
0
 10
10.6183
 20
6.78647
 11
10.5439
 21
6.84422
  0
LINE
  8
0
 10
10.5439
 20
6.84422
 11
10.4732
 21
6.90654
  0
LINE
  8
0
 10
10.4732
 20
6.90654
 11
10.4065
 21
6.97318
  0
LINE
  8
0
 10
10.4065
 20
6.97318
 11
10.3442
 21
7.04385
  0
LINE
  8
0
 10
10.3442
 20
7.04385
 11
10.2865
 21
7.11832
  0
LINE
  8
0
 10
10.2865
 20
7.11832
 11
10.2335
 21
7.19626
  0
LINE
  8
0
 10
10.2335
 20
7.19626
 11
10.1855
 21
7.27736
  0
LINE
  8
0
 10
10.1855
 20
7.27736
 11
10.1427
 21
7.36133
  0
LINE
  8
0
 10
10.1427
 20
7.36133
 11
10.1053
 21
7.4478
  0
LINE
  8
0
 10
10.1053
 20
7.4478
 11
10.0734
 21
7.53647
  0
LINE
  8
0
 10
10.0734
 20
7.53647
 11
10.0471
 21
7.62695
  0
LINE
  8
0
 10
10.0471
 20
7.62695
 11
10.0266
 21
7.71892
  0
LINE
  8
0
 10
10.0266
 20
7.71892
 11
10.0118
 21
7.812
  0
LINE
  8
0
 10
10.0118
 20
7.812
 11
10.0029
 21
7.90581
  0
LINE
  8
0
 10
10.0029
 20
7.90581
 11
10
 21
8
  0
LINE
  8
0
 10
10
 20
8
 11
10.0029
 21
8.09418
  0
LINE
  8
0
 10
10.0029
 20
8.09418
 11
10.0118
 21
8.18799
  0
LINE
  8
0
 10
10.0118
 20
8.18799
 11
10.0266
 21
8.28107
  0
LINE
  8
0
 10
10.0266
 20
8.28107
 11
10.0471
 21
8.37303
  0
LINE
  8
0
 10
10.0471
 20
8.37303
 11
10.0734
 21
8.46352
  0
LINE
  8
0
 10
10.0734
 20
8.46352
 11
10.1053
 21
8.55219
  0
LINE
  8
0
 10
10.1053
 20
8.55219
 11
10.1427
 21
8.63866
  0
LINE
  8
0
 10
10.1427
 20
8.63866
 11
10.1855
 21
8.72263
  0
LINE
  8
0
 10
10.1855
 20
8.72263
 11
10.2335
 21
8.80373
  0
LINE
  8
0
 10
10.2335
 20
8.80373
 11
10.2865
 21
8.88167
  0
LINE
  8
0
 10
10.2865
 20
8.88167
 11
10.3442
 21
8.95613
  0
LINE
  8
0
 10
10.3442
 20
8.95613
 11
10.4065
 21
9.02681
  0
LINE
  8
0
 10
10.4065
 20
9.02681
 11
10.4732
 21
9.09344
  0
LINE
  8
0
 10
10.4732
 20
9.09344
 11
10.5439
 21
9.15576
  0
LINE
  8
0
 10
10.5439
 20
9.15576
 11
10.6183
 21
9.21352
  0
LINE
  8
0
 10
10.6183
 20
9.21352
 11
10.6963
 21
9.26648
  0
LINE
  8
0
 10
10.6963
 20
9.26648
 11
10.7774
 21
9.31445
  0
LINE
  8
0
 10
10.7774
 20
9.31445
 11
10.8613
 21
9.35724
  0
LINE
  8
0
 10
10.8613
 20
9.35724
 11
10.9478
 21
9.39465
  0
LINE
  8
0
 10
10.9478
 20
9.39465
 11
11.0365
 21
9.42657
  0
LINE
  8
0
 10
11.0365
 20
9.42657
 11
11.127
 21
9.45287
  0
LINE
  8
0
 10
11.127
 20
9.45287
 11
11.2189
 21
9.47342
  0
LINE
  8
0
 10
11.2189
 20
9.47342
 11
11.312
 21
9.48816
  0
LINE
  8
0
 10
11.312
 20
9.48816
 11
11.4058
 21
9.49704
  0
LINE
  8
0
 10
11.4058
 20
9.49704
 11
11.5
 21
9.5
  0
LINE
  8
0
 10
11.5
 20
9.5
 11
11.5942
 21
9.49704
  0
LINE
  8
0
 10
11.5942
 20
9.49704
 11
11.688
 21
9.48816
  0
LINE
  8
0
 10
11.688
 20
9.48816
 11
11.7811
 21
9.47342
  0
LINE
  8
0
 10
11.7811
 20
9.47342
 11
11.873
 21
9.45287
  0
LINE
  8
0
 10
11.873
 20
9.45287
 11
11.9635
 21
9.42657
  0
LINE
  8
0
 10
11.9635
 20
9.42657
 11
12.0522
 21
9.39465
  0
LINE
  8
0
 10
12.0522
 20
9.39465
 11
12.1387
 21
9.35724
  0
LINE
  8
0
 10
12.1387
 20
9.35724
 11
12.2226
 21
9.31445
  0
LINE
  8
0
 10
12.2226
 20
9.31445
 11
12.3037
 21
9.26648
  0
LINE
  8
0
 10
12.3037
 20
9.26648
 11
12.3817
 21
9.21352
  0
LINE
  8
0
 10
12.3817
 20
9.21352
 11
12.4561
 21
9.15576
  0
LINE
  8
0
 10
12.4561
 20
9.15576
 11
12.5268
 21
9.09344
  0
LINE
  8
0
 10
12.5268
 20
9.09344
 11
12.5934
 21
9.02681
  0
LINE
  8
0
 10
12.5934
 20
9.02681
 11
12.6558
 21
8.95613
  0
LINE
  8
0
 10
12.6558
 20
8.95613
 11
12.7135
 21
8.88167
  0
LINE
  8
0
 10
12.7135
 20
8.88167
 11
12.7665
 21
8.80373
  0
LINE
  8
0
 10
12.7665
 20
8.80373
 11
12.8145
 21
8.72263
  0
LINE
  8
0
 10
12.8145
 20
8.72263
 11
12.8572
 21
8.63866
  0
LINE
  8
0
 10
12.8572
 20
8.63866
 11
12.8947
 21
8.55219
  0
LINE
  8
0
 10
12.8947
 20
8.55219
 11
12.9266
 21
8.46352
  0
LINE
  8
0
 10
12.9266
 20
8.46352
 11
12.9529
 21
8.37303
  0
LINE
  8
0
 10
12.9529
 20
8.37303
 11
12.9734
 21
8.28107
  0
LINE
  8
0
 10
12.9734
 20
8.28107
 11
12.9882
 21
8.18799
  0
LINE
  8
0
 10
12.9882
 20
8.18799
 11
12.997
 21
8.09418
  0
LINE
  8
0
 10
12.997
 20
8.09418
 11
13
 21
8
  0
LINE
  8
0
 10
13
 20
8
 11
12.997
 21
7.90581
  0
LINE
  8
0
 10
12.997
 20
7.90581
 11
12.9882
 21
7.812
  0
LINE
  8
0
 10
12.9882
 20
7.812
 11
12.9734
 21
7.71892
  0
LINE
  8
0
 10
12.9734
 20
7.71892
 11
12.9529
 21
7.62695
  0
LINE
  8
0
 10
12.9529
 20
7.62695
 11
12.9266
 21
7.53647
  0
LINE
  8
0
 10
12.9266
 20
7.53647
 11
12.8947
 21
7.4478
  0
LINE
  8
0
 10
12.8947
 20
7.4478
 11
12.8572
 21
7.36133
  0
LINE
  8
0
 10
12.8572
 20
7.36133
 11
12.8145
 21
7.27736
  0
LINE
  8
0
 10
12.8145
 20
7.27736
 11
12.7665
 21
7.19626
  0
LINE
  8
0
 10
12.7665
 20
7.19626
 11
12.7135
 21
7.11832
  0
LINE
  8
0
 10
12.7135
 20
7.11832
 11
12.6558
 21
7.04385
  0
LINE
  8
0
 10
12.6558
 20
7.04385
 11
12.5934
 21
6.97318
  0
LINE
  8
0
 10
12.5934
 20
6.97318
 11
12.5268
 21
6.90654
  0
LINE
  8
0
 10
12.5268
 20
6.90654
 11
12.4561
 21
6.84422
  0
LINE
  8
0
 10
12.4561
 20
6.84422
 11
12.3817
 21
6.78647
  0
LINE
  8
0
 10
12.3817
 20
6.78647
 11
12.3037
 21
6.73351
  0
LINE
  8
0
 10
12.3037
 20
6.73351
 11
12.2226
 21
6.68553
  0
LINE
  8
0
 10
12.2226
 20
6.68553
 11
12.1387
 21
6.64275
  0
LINE
  8
0
 10
12.1387
 20
6.64275
 11
12.0522
 21
6.60533
  0
LINE
  8
0
 10
12.0522
 20
6.60533
 11
11.9635
 21
6.57341
  0
LINE
  8
0
 10
11.9635
 20
6.57341
 11
11.873
 21
6.54712
  0
LINE
  8
0
 10
11.873
 20
6.54712
 11
11.7811
 21
6.52657
  0
LINE
  8
0
 10
11.7811
 20
6.52657
 11
11.688
 21
6.51183
  0
LINE
  8
0
 10
11.688
 20
6.51183
 11
11.5942
 21
6.50294
  0
LINE
  8
0
 10
11.5942
 20
6.50294
 11
11.5
 21
6.5
  0
ENDSEC
  0
SECTION
  2
OBJECTS
  0
DICTIONARY
  0
ENDSEC
  0
EOF
